<?xml version="1.0" standalone="no"?>
<!DOCTYPE svg PUBLIC "-//W3C//DTD SVG 20010904//EN"
 "http://www.w3.org/TR/2001/REC-SVG-20010904/DTD/svg10.dtd">
<svg version="1.0" xmlns="http://www.w3.org/2000/svg"
 width="120.000000pt" height="120.000000pt" viewBox="0 0 120.000000 120.000000"
 preserveAspectRatio="xMidYMid meet">
<metadata>
Created by potrace 1.14, written by Peter Selinger 2001-2017
</metadata>
<g transform="translate(0.000000,120.000000) scale(0.100000,-0.100000)"
fill="#000000" stroke="none">
<path d="M95 1186 c-41 -18 -83 -69 -90 -109 -3 -18 -5 -244 -3 -504 3 -458 4
-472 24 -499 11 -15 33 -37 48 -48 27 -21 38 -21 526 -21 488 0 499 0 526 21
15 11 37 33 48 48 21 27 21 38 21 526 0 488 0 499 -21 526 -11 15 -33 37 -48
48 -27 20 -40 21 -514 23 -390 2 -493 0 -517 -11z m703 -258 c2 -9 -26 -90
-61 -180 -102 -258 -102 -259 -88 -267 9 -6 8 -10 -6 -15 -17 -7 -17 -8 -1
-20 11 -8 47 -12 100 -11 49 1 86 -3 90 -9 13 -19 9 -153 -4 -163 -7 -5 -111
-11 -230 -12 -180 -2 -219 0 -223 11 -5 13 64 224 99 301 41 92 57 134 63 170
l6 39 -84 -3 c-83 -4 -84 -4 -93 23 -6 17 -6 49 0 85 l9 58 115 5 c225 10 304
7 308 -12z"/>
</g>
</svg>
