<svg width="36" height="36" viewBox="0 0 36 36" fill="none" xmlns="http://www.w3.org/2000/svg">
<path d="M36 31C36 33.762 33.762 36 31 36H5C2.239 36 0 33.762 0 31V5C0 2.238 2.239 0 5 0H31C33.762 0 36 2.238 36 5V31Z" fill="#0E8EE3"/>
<g clip-path="url(#clip0_1185_92)">
<path d="M13.6437 13.7966C14.9678 13.7966 16.0412 12.7232 16.0412 11.399C16.0412 10.0749 14.9678 9.00146 13.6437 9.00146C12.3195 9.00146 11.2461 10.0749 11.2461 11.399C11.2461 12.7232 12.3195 13.7966 13.6437 13.7966Z" fill="white"/>
<path d="M23.378 13.7966C24.7022 13.7966 25.7756 12.7232 25.7756 11.399C25.7756 10.0749 24.7022 9.00146 23.378 9.00146C22.0539 9.00146 20.9805 10.0749 20.9805 11.399C20.9805 12.7232 22.0539 13.7966 23.378 13.7966Z" fill="white"/>
<path d="M30.8305 23.0942L27.9264 18.119C27.5662 17.5112 26.7895 17.2973 26.1704 17.6575C25.5626 18.0177 25.3487 18.7944 25.7089 19.4022L26.1367 20.1226C24.0092 22.0587 21.2965 23.1167 18.3811 23.1167C15.5558 23.1167 12.8994 22.1037 10.7945 20.2689L11.301 19.3909C11.6612 18.7831 11.4473 17.9952 10.8395 17.6462C10.2317 17.286 9.44372 17.4999 9.08353 18.1077L6.17943 23.083C5.81923 23.6908 6.0331 24.4787 6.64093 24.8277C6.84354 24.9402 7.06867 24.9965 7.28254 24.9965C7.72153 24.9965 8.14926 24.7714 8.38564 24.3662L9.30865 22.7903C11.8751 24.8727 15.0381 25.9983 18.3811 25.9983C21.758 25.9983 25.0335 24.7939 27.6112 22.6552L28.6243 24.3774C28.8607 24.7827 29.2884 25.0078 29.7274 25.0078C29.9412 25.0078 30.1664 24.9515 30.369 24.8389C30.9768 24.4787 31.1794 23.7021 30.8305 23.0942V23.0942Z" fill="white"/>
</g>
<defs>
<clipPath id="clip0_1185_92">
<rect width="25" height="17" fill="white" transform="translate(6 9)"/>
</clipPath>
</defs>
</svg>
