<svg width="36" height="36" viewBox="0 0 36 36" fill="none" xmlns="http://www.w3.org/2000/svg">
<path d="M36 31C36 33.8 33.8 36 31 36H5C2.2 36 0 33.8 0 31V5C0 2.2 2.2 0 5 0H31C33.8 0 36 2.2 36 5V31Z" fill="#FF9800"/>
<path d="M20.9 24.4C22.4 24.1 23.8 23.5 25 22.7C26 22.1 26.3 20.8 25.7 19.8C25.1 18.8 23.8 18.5 22.8 19.1C19.9 20.9 16.1 20.9 13.2 19.1C12.2 18.5 10.9 18.8 10.3 19.8C9.70004 20.8 10 22.1 11 22.7C12.3 23.5 13.7 24.1 15.1 24.4L11.1 28.4C10.3 29.2 10.3 30.5 11.1 31.4C11.5 31.8 12 32 12.6 32C13.1 32 13.7 31.8 14.1 31.4L18 27.5L21.9 31.4C22.7 32.2 24 32.2 24.9 31.4C25.7 30.6 25.7 29.3 24.9 28.4L20.9 24.4ZM18 4C14.1 4 11 7.1 11 11C11 14.9 14.1 18 18 18C21.9 18 25 14.9 25 11C25 7.1 21.9 4 18 4ZM18 14C16.3 14 15 12.7 15 11C15 9.3 16.3 8 18 8C19.7 8 21 9.3 21 11C21 12.7 19.7 14 18 14Z" fill="white"/>
</svg>
