<svg width="36" height="36" viewBox="0 0 36 36" fill="none" xmlns="http://www.w3.org/2000/svg">
<path d="M36 31C36 33.762 33.762 36 31 36H5C2.239 36 0 33.762 0 31V5C0 2.238 2.239 0 5 0H31C33.762 0 36 2.238 36 5V31Z" fill="#1976D2"/>
<path d="M29.937 12.041C29.983 11.89 30.005 11.75 29.999 11.625C29.984 11.263 29.735 11 29.149 11H26.531C25.87 11 25.565 11.4 25.387 11.801C25.387 11.801 23.755 15.16 21.874 17.375C21.264 18.016 20.954 18 20.624 18C20.447 18 20 17.786 20 17.199V12.014C20 11.32 19.827 11 19.268 11H14.619C14.212 11 14 11.32 14 11.641C14 12.308 14.898 12.468 15 14.337V17.96C15 18.84 14.847 19 14.517 19C13.627 19 11.875 16 10.702 12.068C10.448 11.294 10.194 11 9.533 11H6.89C6.127 11 6 11.374 6 11.774C6 12.495 6.6 16.393 9.875 20.875C12.25 24.125 15.379 26 18.149 26C19.827 26 19.999 25.573 19.999 24.906V21.934C20 21.133 20.183 21 20.717 21C21.098 21 21.875 21.25 23.375 23C25.105 25.018 25.419 26 26.411 26H29.029C29.637 26 29.986 25.745 30 25.25C30.003 25.124 29.985 24.983 29.944 24.826C29.75 24.25 28.86 22.842 27.75 21.5C27.135 20.757 26.528 20.021 26.249 19.621C26.062 19.36 25.991 19.176 26 19C26.009 18.815 26.105 18.639 26.249 18.393C26.223 18.393 29.607 13.642 29.937 12.041Z" fill="white"/>
</svg>
