<svg width="200" height="148" viewBox="0 0 200 148" fill="none" xmlns="http://www.w3.org/2000/svg">
<rect x="2" y="3" width="31" height="46" fill="#D4D4D4"/>
<rect x="35" y="3" width="31" height="46" fill="#D4D4D4"/>
<rect x="68" y="3" width="31" height="46" fill="#D4D4D4"/>
<rect x="2" y="51" width="31" height="46" fill="#D4D4D4"/>
<rect x="35" y="51" width="31" height="46" fill="#D4D4D4"/>
<rect x="68" y="51" width="31" height="46" fill="#D4D4D4"/>
<rect x="167" y="51" width="31" height="46" fill="#D4D4D4"/>
<rect x="167" y="99" width="31" height="46" fill="#D4D4D4"/>
<rect x="68" y="99" width="31" height="46" fill="#D4D4D4"/>
<rect x="35" y="99" width="31" height="46" fill="#D4D4D4"/>
<rect x="101" y="3" width="31" height="46" fill="#D4D4D4"/>
<rect x="134" y="3" width="31" height="46" fill="#D4D4D4"/>
<rect x="101" y="51" width="31" height="46" fill="#D4D4D4"/>
<rect x="134" y="51" width="31" height="46" fill="#D4D4D4"/>
<rect x="134" y="99" width="31" height="46" fill="#D4D4D4"/>
<rect x="101" y="99" width="31" height="46" fill="#D4D4D4"/>
<rect y="99" width="33" height="49" rx="2" fill="#E21D24"/>
<rect x="167" width="33" height="49" rx="2" fill="#E21D24"/>
</svg>
