<svg xmlns="http://www.w3.org/2000/svg" width="25.785" height="25.781" viewBox="0 0 25.785 25.781">
  <defs>
    <style>
      .cls-1 {
        fill: #e21d24;
        fill-rule: evenodd;
      }
    </style>
  </defs>
  <path id="hero-feature-3" class="cls-1" d="M1019.9,348.745c-0.06.481-.11,0.962-0.19,1.44a12.828,12.828,0,0,1-2.96,6.32c-0.05.064-.1,0.128-0.18,0.22,0.09,0.009.15,0.022,0.22,0.022,0.39,0,.79,0,1.18,0a0.991,0.991,0,0,1,1,.959,0.971,0.971,0,0,1-.91,1.039,20.874,20.874,0,0,1-2.54-.039,2.939,2.939,0,0,1-2.57-2.744c-0.03-.745-0.02-1.493-0.01-2.24a1,1,0,0,1,2-.019c0.02,0.469.01,0.939,0.01,1.409v0.375c0.11-.114.17-0.18,0.23-0.251a11.076,11.076,0,0,0,.34-14.093,10.339,10.339,0,0,0-6.7-3.881,10.719,10.719,0,0,0-8.67,2.234,10.312,10.312,0,0,0-3.864,6.677,10.716,10.716,0,0,0,2.217,8.654,10.437,10.437,0,0,0,6.667,3.884,11.006,11.006,0,0,0,5.67-.526,1.006,1.006,0,0,1,1.43.773,0.968,0.968,0,0,1-.62,1.069,12.328,12.328,0,0,1-3.04.753c-0.28.034-.56,0.068-0.84,0.1h-1.57a0.926,0.926,0,0,0-.11-0.034c-0.78-.123-1.57-0.183-2.33-0.376a12.613,12.613,0,0,1-9.451-10.238c-0.082-.478-0.129-0.96-0.193-1.44v-1.611c0.015-.081.032-0.161,0.044-0.243,0.085-.588.14-1.182,0.259-1.764a12.681,12.681,0,0,1,10.291-9.882c0.5-.08,1-0.134,1.49-0.2h1.62a1.289,1.289,0,0,0,.14.036,20.655,20.655,0,0,1,2.52.433,12.477,12.477,0,0,1,9.23,10.18c0.09,0.473.13,0.958,0.19,1.439v1.561ZM1006,345.98v-1.964a1.011,1.011,0,1,1,2.02,0c0,1.091,0,2.182-.01,3.272a0.634,0.634,0,0,0,.22.5c0.51,0.5,1.01,1,1.51,1.513a0.977,0.977,0,0,1,.19,1.139,0.931,0.931,0,0,1-.95.563,1.3,1.3,0,0,1-.67-0.3c-0.68-.644-1.34-1.32-2-1.986a1.052,1.052,0,0,1-.31-0.771C1006.01,347.289,1006,346.634,1006,345.98Z" transform="translate(-994.125 -335.094)"/>
</svg>
