<svg xmlns="http://www.w3.org/2000/svg" width="26.344" height="26.313" viewBox="0 0 26.344 26.313">
  <defs>
    <style>
      .cls-1 {
        fill: #e21d24;
        fill-rule: evenodd;
      }
    </style>
  </defs>
  <path id="hero-feature-2" class="cls-1" d="M719.508,362.481a6.276,6.276,0,0,1-1.035-.419A2.55,2.55,0,0,1,717.2,359.8c-0.007-1.337-.01-2.673,0-4.01a2.813,2.813,0,0,1,1.32-2.448,5.865,5.865,0,0,0,1.676-1.675,2.826,2.826,0,0,1,2.475-1.319q1.953,0,3.907,0a2.655,2.655,0,0,1,2.712,2.223,0.467,0.467,0,0,0,.042.091v0.72c-0.054.188-.1,0.379-0.164,0.562a13.862,13.862,0,0,1-3.946,5.755,13.085,13.085,0,0,1-4.992,2.785h-0.72Zm5.131-10.079c-0.643,0-1.285,0-1.927,0a0.911,0.911,0,0,0-.841.446,7.015,7.015,0,0,1-2.18,2.178,0.9,0.9,0,0,0-.44.818c0,1.294,0,2.587,0,3.88a0.621,0.621,0,0,0,.894.638,11.791,11.791,0,0,0,7.067-7.072,0.616,0.616,0,0,0-.622-0.885C725.941,352.4,725.29,352.4,724.639,352.4Zm-11.817-16.25c0.105,0.03.209,0.063,0.315,0.091a2.651,2.651,0,0,1,2,2.555c0.008,1.361.011,2.723,0,4.084a2.756,2.756,0,0,1-1.263,2.37,6.334,6.334,0,0,0-1.765,1.764,2.773,2.773,0,0,1-2.394,1.269c-1.327.011-2.654,0-3.981,0a2.7,2.7,0,0,1-2.676-2.149,1.373,1.373,0,0,0-.055-0.164v-0.721c0.053-.179.1-0.363,0.16-0.539A13.751,13.751,0,0,1,706,340.023a13.464,13.464,0,0,1,6.1-3.871h0.72Zm0.259,4.711c0-.651-0.02-1.3.007-1.951a0.632,0.632,0,0,0-.873-0.631,11.652,11.652,0,0,0-7.094,7.065,0.614,0.614,0,0,0,.623.883c1.3,0,2.6,0,3.9,0a0.883,0.883,0,0,0,.8-0.424,7.083,7.083,0,0,1,2.2-2.2,0.9,0.9,0,0,0,.439-0.817C713.077,342.148,713.081,341.505,713.081,340.863ZM703,352.71c0.043-.164.08-0.331,0.131-0.493a2.654,2.654,0,0,1,2.528-1.871c1.354-.006,2.708-0.01,4.062,0A2.752,2.752,0,0,1,712.1,351.6a6.491,6.491,0,0,0,1.785,1.784,2.755,2.755,0,0,1,1.253,2.377c0.01,1.328.006,2.657,0,3.985a2.681,2.681,0,0,1-2.224,2.69,0.411,0.411,0,0,0-.091.041h-0.668a20.822,20.822,0,0,1-2.116-.83A13.553,13.553,0,0,1,703,353.328V352.71Zm4.7-.308c-0.642,0-1.285,0-1.927,0a0.625,0.625,0,0,0-.64.926,11.8,11.8,0,0,0,7.022,7.02,0.624,0.624,0,0,0,.923-0.644c0-1.276,0-2.553,0-3.829a0.939,0.939,0,0,0-.454-0.862,6.949,6.949,0,0,1-2.162-2.162,0.912,0.912,0,0,0-.838-0.451C708.988,352.407,708.346,352.4,707.7,352.4Zm21.627-12.754c-0.032.133-.065,0.264-0.094,0.4a2.947,2.947,0,0,1-.816,1.486c-0.5.5-1.009,1-1.54,1.523,0.183,0.178.352,0.333,0.509,0.5a1.036,1.036,0,0,1,0,1.476,1.012,1.012,0,0,1-1.452-.022q-2.75-2.736-5.486-5.486a1,1,0,0,1-.013-1.487,1.012,1.012,0,0,1,1.469.04c0.167,0.16.32,0.333,0.536,0.559,0.131-.156.236-0.3,0.36-0.425,0.34-.35.692-0.687,1.032-1.037a3.179,3.179,0,0,1,1.9-.981,0.394,0.394,0,0,0,.095-0.036H726.5a1.254,1.254,0,0,0,.144.044,3.124,3.124,0,0,1,2.614,2.462c0.023,0.108.047,0.215,0.07,0.322v0.668Zm-3.871,1.935c0.506-.506,1.019-1,1.508-1.514a1.085,1.085,0,0,0-.029-1.548,1.105,1.105,0,0,0-1.553.013c-0.365.352-.716,0.715-1.075,1.071-0.143.14-.291,0.276-0.425,0.4C724.427,340.55,724.935,341.057,725.459,341.583Zm-6.568,7.947c-0.206-.052-0.6-0.134-0.979-0.254a0.253,0.253,0,0,0-.308.069c-0.238.246-.484,0.486-0.732,0.722a1.029,1.029,0,1,1-1.442-1.466c0.246-.25.508-0.486,0.748-0.741a0.305,0.305,0,0,0,.059-0.259,3.084,3.084,0,0,1,.817-3.477c0.673-.662,1.334-1.334,2.013-1.987a1.03,1.03,0,1,1,1.406,1.5q-1.023,1.014-2.046,2.026a1.015,1.015,0,0,0-.333.975,1.021,1.021,0,0,0,1.742.5c0.618-.617,1.231-1.241,1.846-1.862,0.1-.1.191-0.2,0.292-0.29a1.025,1.025,0,0,1,1.457,1.443c-0.33.359-.684,0.7-1.027,1.045-0.386.39-.769,0.783-1.159,1.168A3.262,3.262,0,0,1,718.891,349.53Z" transform="translate(-703 -336.156)"/>
</svg>
