<svg xmlns="http://www.w3.org/2000/svg" width="26" height="26" viewBox="0 0 26 26">
  <defs>
    <style>
      .cls-1 {
        fill: #e21d24;
        fill-rule: evenodd;
      }
    </style>
  </defs>
  <path id="hero-feature-4" class="cls-1" d="M1300.27,362.464h-8.54a0.234,0.234,0,0,0-.08-0.042,3.058,3.058,0,0,1-2.56-3.126V358.4c-0.36,0-.7,0-1.04,0a5.077,5.077,0,0,1-4.87-3.757c-0.08-.267-0.12-0.541-0.18-0.813v-5.078a0.375,0.375,0,0,0,.04-0.143,5.07,5.07,0,0,1,5.02-4.424q7.935-.015,15.88,0a5.052,5.052,0,0,1,4.88,3.755c0.08,0.266.12,0.541,0.18,0.812v5.078a0.715,0.715,0,0,0-.04.142,4.99,4.99,0,0,1-2.18,3.54,4.915,4.915,0,0,1-2.81.887c-0.35,0-.7,0-1.06,0,0,0.372,0,.71-0.01,1.047a3.007,3.007,0,0,1-1.23,2.416A3.879,3.879,0,0,1,1300.27,362.464Zm2.65-6.095c0.37,0,.72,0,1.06,0a3.054,3.054,0,0,0,2.99-2.991q0.015-2.08,0-4.163a3.042,3.042,0,0,0-3-3q-7.965-.014-15.94,0a3.04,3.04,0,0,0-3,3c-0.01,1.379,0,2.759,0,4.138a2.819,2.819,0,0,0,.42,1.5c0.9,1.45,2.17,1.628,3.63,1.486v-2h-0.91a1.02,1.02,0,1,1,0-2.031h15.66a1.02,1.02,0,1,1,0,2.031h-0.91v2.03Zm-2.04-2.012h-9.74a0.358,0.358,0,0,0-.01.092c0,1.659-.01,3.318,0,4.976a1,1,0,0,0,1.07,1.007c2.53,0,5.07,0,7.6,0a1.01,1.01,0,0,0,1.07-1.083c0.01-.635.01-1.269,0.01-1.9v-3.088Zm-0.41-17.893a3.772,3.772,0,0,1,1.38.586,3.028,3.028,0,0,1,1.26,2.435c0.01,0.532,0,1.067,0,1.6a1.016,1.016,0,1,1-2.03-.008v-1.523a1.014,1.014,0,0,0-1.06-1.057q-4.02,0-8.04,0a1.014,1.014,0,0,0-1.06,1.057v1.523a1.016,1.016,0,1,1-2.03.008,16.278,16.278,0,0,1,.04-1.977,2.989,2.989,0,0,1,2.49-2.6,0.735,0.735,0,0,0,.11-0.046h8.94Zm-0.62,11.782a1.015,1.015,0,0,1,.02,2.029A1.015,1.015,0,1,1,1299.85,348.246Zm4.06,2.029a1.015,1.015,0,1,1,1.03-1A1.025,1.025,0,0,1,1303.91,350.275Z" transform="translate(-1283 -336.469)"/>
</svg>
