<svg xmlns="http://www.w3.org/2000/svg" width="21.906" height="26.437" viewBox="0 0 21.906 26.437">
  <defs>
    <style>
      .cls-1 {
        fill: #e21d24;
        fill-rule: evenodd;
      }
    </style>
  </defs>
  <path id="hero-feature-1" class="cls-1" d="M421.288,335.557h0.878a1.248,1.248,0,0,0,.17.044,6.176,6.176,0,0,1,5.36,4.633c0.083,0.33.136,0.669,0.2,1V347.9a1.732,1.732,0,0,0-.043.226,15.973,15.973,0,0,1-3.193,8.515,34.661,34.661,0,0,1-3.431,3.634,5.748,5.748,0,0,1-2.71,1.518c-0.331.085-.669,0.139-1,0.206h-1.136a0.953,0.953,0,0,0-.144-0.044,6.073,6.073,0,0,1-3.627-1.732q-1-.983-1.988-1.988a15.836,15.836,0,0,1-4.476-9.137c-0.057-.416-0.1-0.833-0.146-1.25v-6.713a0.675,0.675,0,0,0,.042-0.119,6.154,6.154,0,0,1,4.074-5.076,11.22,11.22,0,0,1,1.514-.383h1.084c0.133,0.026.266,0.054,0.4,0.077a19.167,19.167,0,0,0,5.71.282C419.646,335.807,420.466,335.677,421.288,335.557Zm-13.221,9.032h0c0,0.869-.013,1.737,0,2.607a13.7,13.7,0,0,0,2.784,8.158,25.357,25.357,0,0,0,3.46,3.61,4.059,4.059,0,0,0,5.534-.219c0.7-.677,1.39-1.36,2.061-2.064a13.724,13.724,0,0,0,3.918-9.648c0.018-1.756.012-3.512,0-5.267a4.149,4.149,0,0,0-4.884-4.073,34.361,34.361,0,0,1-3.536.383,19.588,19.588,0,0,1-4.464-.382,4.153,4.153,0,0,0-4.877,4.08C408.065,342.712,408.067,343.65,408.067,344.589Zm11.054,8.642c-0.323-.1-0.657-0.181-0.968-0.313-0.355-.152-0.684-0.362-1.035-0.523a0.47,0.47,0,0,0-.346,0c-0.344.158-.672,0.347-1.01,0.518a1.977,1.977,0,0,1-2.211-.158,1.949,1.949,0,0,1-.793-2.021c0.063-.365.113-0.73,0.19-1.092a0.331,0.331,0,0,0-.117-0.359c-0.242-.22-0.469-0.457-0.709-0.678a2,2,0,0,1-.636-2.24,2.04,2.04,0,0,1,1.883-1.413,9.029,9.029,0,0,0,.942-0.142,0.473,0.473,0,0,0,.275-0.21c0.173-.306.322-0.626,0.477-0.943a2.068,2.068,0,0,1,3.778.008c0.151,0.309.312,0.614,0.456,0.925a0.333,0.333,0,0,0,.3.228c0.4,0.047.8,0.112,1.2,0.18a2.041,2.041,0,0,1,1.139,3.448c-0.278.293-.588,0.557-0.865,0.851a0.455,0.455,0,0,0-.108.328c0.047,0.392.126,0.78,0.19,1.17A2.126,2.126,0,0,1,419.121,353.231Zm1.244-6.207c-0.346-.051-0.708-0.114-1.072-0.155a2.124,2.124,0,0,1-1.791-1.252c-0.137-.287-0.283-0.57-0.426-0.854-0.035-.07-0.074-0.139-0.131-0.244-0.212.426-.395,0.805-0.588,1.177a2.03,2.03,0,0,1-1.535,1.135c-0.435.071-.871,0.132-1.281,0.194,0.3,0.318.591,0.632,0.889,0.941a2.05,2.05,0,0,1,.576,1.868c-0.069.4-.134,0.8-0.209,1.255,0.372-.191.7-0.344,1.008-0.522a2.156,2.156,0,0,1,2.277-.009c0.319,0.18.649,0.338,1.021,0.531-0.072-.433-0.127-0.814-0.2-1.191a2.106,2.106,0,0,1,.683-2.051C419.86,347.59,420.1,347.3,420.365,347.024Z" transform="translate(-406 -335.563)"/>
</svg>
