<svg id="i-volume-feature-1" xmlns="http://www.w3.org/2000/svg" width="60" height="60" viewBox="0 0 60 60">
  <defs>
    <style>
      .cls-1 {
        fill: #e21d24;
      }

      .cls-2 {
        fill: #fff;
        fill-rule: evenodd;
      }
    </style>
  </defs>
  <circle class="cls-1" cx="30" cy="30" r="30"/>
  <path class="cls-2" d="M404.423,7421.09a11.616,11.616,0,0,0-3.885.9,11.151,11.151,0,0,0-6.848,12.19,10.74,10.74,0,0,0,2.76,5.85,11.228,11.228,0,0,0,10.483,3.69,1.083,1.083,0,0,0,.936-1.27,1.094,1.094,0,0,0-1.294-.93,8.723,8.723,0,0,1-2.746.04,9.2,9.2,0,0,1-4.863-2.1,9.528,9.528,0,0,1-1.551-12.29,9.36,9.36,0,0,1,11.83-2.89,9.167,9.167,0,0,1,4.491,5.21,1.107,1.107,0,0,0,1.448.72,1.121,1.121,0,0,0,.652-1.46C414.215,7424.05,410.119,7421.1,404.423,7421.09Zm1.733,7.67h0c0-.76,0-1.51,0-2.26a1.114,1.114,0,1,0-2.227.04c-0.006,1.49,0,2.99-.006,4.48a0.65,0.65,0,0,1-.127.37,1.689,1.689,0,0,0,.105,2.34,1.668,1.668,0,0,0,2.3-.01,1.687,1.687,0,0,0,.11-2.32,0.674,0.674,0,0,1-.142-0.39C406.149,7430.26,406.156,7429.51,406.156,7428.76Zm11.549-5.49a1.955,1.955,0,0,0-.3-0.58c-0.934-.97-1.888-1.92-2.848-2.86a1.048,1.048,0,0,0-1.308-.16,1.085,1.085,0,0,0-.232,1.75c0.505,0.54,1.033,1.05,1.551,1.56,0.42,0.42.831,0.85,1.265,1.26a1.033,1.033,0,0,0,1.211.19A1.158,1.158,0,0,0,417.705,7423.27Zm3.108,15c-0.037.14-.072,0.28-0.112,0.42a2.9,2.9,0,0,1-1.319,1.77c-1.688,1.01-3.373,2.02-5.076,3.01a3.084,3.084,0,0,1-4.636-2.68q-0.009-2.925,0-5.85a3.085,3.085,0,0,1,4.66-2.66c1.648,0.96,3.287,1.95,4.934,2.92a2.99,2.99,0,0,1,1.5,2.13,0.308,0.308,0,0,0,.047.1v0.84Zm-8.915-.42c0,0.95,0,1.89,0,2.84a0.864,0.864,0,0,0,1.394.79q2.384-1.41,4.761-2.83a0.839,0.839,0,0,0,.007-1.57c-1.593-.95-3.189-1.89-4.786-2.84a0.861,0.861,0,0,0-1.376.79C411.9,7435.97,411.9,7436.91,411.9,7437.85Zm-6.638-22.51c0.242,0.06.489,0.11,0.726,0.18a3.253,3.253,0,0,1,2.247,3.16,1.107,1.107,0,0,1-2.2.13c-0.014-.09-0.023-0.19-0.035-0.28a1.108,1.108,0,0,0-2.19-.04c-0.014.1-.025,0.19-0.036,0.28a1.109,1.109,0,0,1-2.211-.18,3.233,3.233,0,0,1,2.849-3.2,0.645,0.645,0,0,0,.13-0.05h0.725Zm-12.988,7.87a10.9,10.9,0,0,1,.719-0.9c0.782-.81,1.577-1.6,2.379-2.39a1.114,1.114,0,0,1,1.89.51,1.05,1.05,0,0,1-.278,1.03c-0.932.94-1.862,1.89-2.817,2.81a1.093,1.093,0,0,1-1.81-.39c-0.025-.06-0.055-0.11-0.083-0.17v-0.5Zm12.151-2.12c5.7,0.01,9.792,2.96,11.413,7.66a1.121,1.121,0,0,1-.652,1.46,1.107,1.107,0,0,1-1.448-.72,9.167,9.167,0,0,0-4.491-5.21,9.36,9.36,0,0,0-11.83,2.89,9.528,9.528,0,0,0,1.551,12.29,9.2,9.2,0,0,0,4.863,2.1,8.723,8.723,0,0,0,2.746-.04,1.094,1.094,0,0,1,1.294.93,1.083,1.083,0,0,1-.936,1.27,11.228,11.228,0,0,1-10.483-3.69,10.74,10.74,0,0,1-2.76-5.85,11.151,11.151,0,0,1,6.848-12.19A11.616,11.616,0,0,1,404.423,7421.09Zm1.733,7.67c0,0.75-.007,1.5.006,2.25a0.674,0.674,0,0,0,.142.39,1.687,1.687,0,0,1-.11,2.32,1.668,1.668,0,0,1-2.3.01,1.689,1.689,0,0,1-.105-2.34,0.65,0.65,0,0,0,.127-0.37c0.008-1.49,0-2.99.006-4.48a1.114,1.114,0,1,1,2.227-.04c0,0.75,0,1.5,0,2.26h0Zm11.549-5.49a1.158,1.158,0,0,1-.66,1.16,1.033,1.033,0,0,1-1.211-.19c-0.434-.41-0.845-0.84-1.265-1.26-0.518-.51-1.046-1.02-1.551-1.56a1.085,1.085,0,0,1,.232-1.75,1.048,1.048,0,0,1,1.308.16c0.96,0.94,1.914,1.89,2.848,2.86A1.955,1.955,0,0,1,417.705,7423.27Z" transform="translate(-376 -7401)"/>
</svg>
