<svg id="i-volume-feature-2" xmlns="http://www.w3.org/2000/svg" width="60" height="60" viewBox="0 0 60 60">
  <defs>
    <style>
      .cls-1 {
        fill: #e21d24;
      }

      .cls-2 {
        fill: #fff;
        fill-rule: evenodd;
      }
    </style>
  </defs>
  <circle class="cls-1" cx="30" cy="30" r="30"/>
  <path class="cls-2" d="M396.358,7564.36a6.988,6.988,0,0,1,1.359.57,3,3,0,0,1,1.37,2.65v16.07a1.087,1.087,0,0,0,1.263,1.26h0.967a31.588,31.588,0,0,1-.125-4.65c-0.027-1.55-.006-3.1-0.006-4.64a3.151,3.151,0,0,1,3.278-3.29h8.159a3.143,3.143,0,0,1,3.255,3.26c0,2.04,0,4.09,0,6.13a1.05,1.05,0,1,1-2.1-.03q0-3,0-6.02a1.078,1.078,0,0,0-1.23-1.24q-4.039-.015-8.08,0a1.059,1.059,0,0,0-1.185,1.17v8.13a1.062,1.062,0,0,0,1.185,1.18c4.7,0,9.392.01,14.087-.01a1.2,1.2,0,0,1,1.31.85v0.42a1.15,1.15,0,0,1-1.31.84c-0.241-.01-0.484,0-0.738,0a3.117,3.117,0,0,1-1.238,3.65,2.9,2.9,0,0,1-3.314.11,3.1,3.1,0,0,1-1.438-3.74h-6.6a3.206,3.206,0,0,1-1.248,3.64,3.074,3.074,0,0,1-3.5-.01,3.11,3.11,0,0,1-1.2-3.74,0.192,0.192,0,0,0-.043-0.04,3.164,3.164,0,0,1-2.252-3.31v-15.96a1.066,1.066,0,0,0-1.157-1.16c-0.508,0-1.016-.02-1.521.01a1.176,1.176,0,0,1-1.31-.84v-0.42a1.206,1.206,0,0,1,.84-0.84h2.518Zm5.873,24.75a1.05,1.05,0,1,0-1.044-1.06A1.056,1.056,0,0,0,402.231,7589.11Zm12.6-2.1a1.05,1.05,0,1,0,1.047,1.05A1.052,1.052,0,0,0,414.83,7587.01Zm-7.347-8.4h2.1c0-.36-0.01-0.73,0-1.09a1.047,1.047,0,0,1,.838-0.98,1.027,1.027,0,0,1,1.123.54,1.224,1.224,0,0,1,.128.52c0.014,0.68.01,1.36,0,2.04a1.05,1.05,0,0,1-1.08,1.08h-4.141a1.045,1.045,0,0,1-1.073-1.08c0-.68,0-1.36,0-2.05a1.049,1.049,0,1,1,2.1.01C407.486,7577.93,407.483,7578.27,407.483,7578.61Z" transform="translate(-376 -7548)"/>
</svg>
