<svg id="icon-vk" xmlns="http://www.w3.org/2000/svg" width="39" height="39" viewBox="0 0 39 39">
  <defs>
    <style>
      .cls-1 {
        fill: #2787f5;
      }

      .cls-2 {
        fill: #fff;
        fill-rule: evenodd;
      }
    </style>
  </defs>
  <circle class="cls-1" cx="19.5" cy="19.5" r="19.5"/>
  <path id="icon-vk-2" data-name="icon-vk" class="cls-2" d="M1351.95,9920.73V9921c-0.13.29-.23,0.59-0.38,0.86a20.376,20.376,0,0,1-1.76,2.56c-0.32.42-.64,0.85-0.92,1.3a0.776,0.776,0,0,0,.1.99c0.13,0.14.27,0.28,0.41,0.42,0.52,0.53,1.07,1.04,1.57,1.59a3.253,3.253,0,0,1,.98,1.64v0.03a0.629,0.629,0,0,1-.61.53,4.55,4.55,0,0,1-.52.04l-2.27.03a3.381,3.381,0,0,1-.45-0.01,2.373,2.373,0,0,1-1.35-.73c-0.42-.43-0.8-0.89-1.22-1.32a3.247,3.247,0,0,0-.54-0.44,0.439,0.439,0,0,0-.66.08,1.462,1.462,0,0,0-.35.6,6.741,6.741,0,0,0-.15,1.11,0.615,0.615,0,0,1-.63.65c-0.47.03-.95,0.03-1.43,0.02a5.733,5.733,0,0,1-.92-0.09,7.247,7.247,0,0,1-4.01-2.46,23.75,23.75,0,0,1-3.2-4.9c-0.43-.85-0.82-1.72-1.23-2.58v-0.27a0.724,0.724,0,0,1,.72-0.29c0.82-.01,1.64-0.01,2.46-0.02a0.9,0.9,0,0,1,1.02.67,25.142,25.142,0,0,0,1.75,3.38,2.413,2.413,0,0,0,.83.85,0.42,0.42,0,0,0,.65-0.2,1.149,1.149,0,0,0,.12-0.37,16.066,16.066,0,0,0,.15-1.69,10.594,10.594,0,0,0-.15-1.49,0.9,0.9,0,0,0-.71-0.77,1.17,1.17,0,0,0-.2-0.05c-0.18-.05-0.2-0.09-0.08-0.24a1.072,1.072,0,0,1,.66-0.42,11.241,11.241,0,0,1,1.13-.14,10.4,10.4,0,0,1,2.3.09,0.817,0.817,0,0,1,.79.78,1.34,1.34,0,0,1,.01.2c0,0.48-.01.96-0.02,1.44-0.01.66-.03,1.33-0.01,2a1.7,1.7,0,0,0,.19.69,0.363,0.363,0,0,0,.62.08,5.282,5.282,0,0,0,.69-0.73,15.091,15.091,0,0,0,1.92-3.5,1.593,1.593,0,0,1,.15-0.29,0.458,0.458,0,0,1,.42-0.25c1.14-.01,2.27-0.03,3.41-0.03A0.647,0.647,0,0,1,1351.95,9920.73Z" transform="translate(-1323 -9906)"/>
</svg>
