<svg xmlns="http://www.w3.org/2000/svg" width="17.813" height="16.7" viewBox="0 0 17.813 16.7">
  <defs>
    <style>
      .cls-1 {
        fill: #e21d24;
        fill-rule: evenodd;
      }
    </style>
  </defs>
  <path id="icon-weight" class="cls-1" d="M611,10772.2c0.5-1.6,1.225-3.2,1.827-4.7,0.339-.9.7-1.8,1.055-2.7a2.02,2.02,0,0,1,2.112-1.4h3.215c0-.3,0-0.5,0-0.7a0.676,0.676,0,0,1,.687-0.7,0.685,0.685,0,0,1,.7.7c0,0.2,0,.4,0,0.7h3.268a2.133,2.133,0,0,1,2.033,1.3q1.371,3.45,2.731,6.9c0.077,0.2.119,0.4,0.177,0.6v0.5a1,1,0,0,0-.036.1,2.064,2.064,0,0,1-2.016,1.7h-13.7a2.062,2.062,0,0,1-1.63-.8,3.134,3.134,0,0,1-.423-1v-0.5Zm8.9,0.9h6.729a0.691,0.691,0,0,0,.706-1c-0.9-2.3-1.8-4.5-2.708-6.8a0.7,0.7,0,0,0-.795-0.5h-7.842a0.709,0.709,0,0,0-.809.5c-0.9,2.3-1.8,4.5-2.7,6.8a0.67,0.67,0,0,0,.706,1H619.9Zm8.91-14.3a3.058,3.058,0,0,1-.433,1,2.049,2.049,0,0,1-1.619.8h-13.7a2.065,2.065,0,0,1-2.017-1.7,1,1,0,0,0-.036-0.1v-0.4a0.857,0.857,0,0,1,.557-0.6h0.278a0.738,0.738,0,0,1,.552.6,0.731,0.731,0,0,0,.858.8h13.511a0.672,0.672,0,0,0,.654-0.6,0.784,0.784,0,0,1,.565-0.8h0.278a0.856,0.856,0,0,1,.556.6v0.4Zm-8.9,7.3a5.028,5.028,0,0,1,4.835,4.4c0.014,0.2.024,0.3,0.026,0.5a0.669,0.669,0,0,1-.683.7,0.7,0.7,0,0,1-.708-0.7,3.343,3.343,0,0,0-1.815-3,3.468,3.468,0,0,0-5.111,2.6c-0.017.1-.023,0.3-0.029,0.4a0.711,0.711,0,0,1-.708.7,0.684,0.684,0,0,1-.684-0.7,4.951,4.951,0,0,1,4.049-4.8A2.359,2.359,0,0,0,619.912,10766.1Zm0.688,4.2c0,0.3,0,.5,0,0.7a0.695,0.695,0,1,1-1.389,0c0-.4,0-0.9,0-1.4a0.686,0.686,0,0,1,.688-0.7,0.694,0.694,0,0,1,.7.7C620.6,10769.9,620.6,10770.1,620.6,10770.3Z" transform="translate(-611 -10757.8)"/>
</svg>
