<svg id="icon-tw" xmlns="http://www.w3.org/2000/svg" width="39" height="39" viewBox="0 0 39 39">
  <defs>
    <style>
      .cls-1 {
        fill: #03a9f4;
      }

      .cls-2 {
        fill: #fff;
        fill-rule: evenodd;
      }
    </style>
  </defs>
  <circle class="cls-1" cx="19.5" cy="19.5" r="19.5"/>
  <path class="cls-2" d="M1439.94,9917.89h0.72a0.106,0.106,0,0,1,.05.02,3.843,3.843,0,0,1,2.33,1.11,0.237,0.237,0,0,0,.19.04,7.3,7.3,0,0,0,2.11-.8c0.05-.02.09-0.04,0.17-0.07a4.078,4.078,0,0,1-1.56,2.06,6.961,6.961,0,0,0,1.03-.21c0.34-.09.67-0.22,1.02-0.33a7.353,7.353,0,0,1-1.73,1.83,0.291,0.291,0,0,0-.14.29,9.533,9.533,0,0,1-.17,2.26,11.116,11.116,0,0,1-2.86,5.63,10.1,10.1,0,0,1-6.24,3.17c-0.31.04-.61,0.07-0.92,0.11h-1.16c-0.22-.02-0.43-0.05-0.65-0.07a10.634,10.634,0,0,1-4.07-1.27c-0.19-.11-0.37-0.22-0.55-0.33a7.953,7.953,0,0,0,5.55-1.6,3.931,3.931,0,0,1-3.55-2.66,4.131,4.131,0,0,0,1.68-.08,3.785,3.785,0,0,1-2.98-3.75c0.27,0.1.53,0.22,0.8,0.3s0.54,0.1.82,0.15a3.9,3.9,0,0,1-1.09-5.09,10.855,10.855,0,0,0,7.84,3.97c-0.03-.27-0.05-0.51-0.06-0.75a3.776,3.776,0,0,1,2.46-3.68C1439.29,9918.03,1439.62,9917.97,1439.94,9917.89Z" transform="translate(-1417 -9906)"/>
</svg>
