<svg xmlns="http://www.w3.org/2000/svg" width="16.656" height="15.91" viewBox="0 0 16.656 15.91">
  <defs>
    <style>
      .cls-1 {
        fill: #e21d24;
        fill-rule: evenodd;
      }
    </style>
  </defs>
  <path class="cls-1" d="M419.663,1855.34c-0.031.18-.058,0.37-0.1,0.56a4.8,4.8,0,0,1-1.351,2.47q-3.769,3.765-7.537,7.54a0.6,0.6,0,1,1-.921-0.78c0.05-.05.106-0.11,0.159-0.16q3.745-3.75,7.49-7.49a3.5,3.5,0,1,0-4.939-4.95q-3.769,3.765-7.536,7.54a2.383,2.383,0,0,0,3.176,3.55c0.061-.06.121-0.11,0.179-0.17q3.411-3.4,6.822-6.82a1.11,1.11,0,0,0,.264-1.3,1.1,1.1,0,0,0-1.688-.38,1.914,1.914,0,0,0-.192.17q-3.216,3.225-6.431,6.44a0.644,0.644,0,0,1-.607.23,0.592,0.592,0,0,1-.38-0.93,1.827,1.827,0,0,1,.118-0.14q3.267-3.27,6.535-6.54a2.311,2.311,0,1,1,3.254,3.28q-1.118,1.125-2.243,2.25-2.285,2.28-4.567,4.57a3.675,3.675,0,0,1-1.9,1.03,3.592,3.592,0,0,1-4.239-3.04c-0.007-.05-0.022-0.11-0.034-0.16v-0.65a0.75,0.75,0,0,0,.03-0.11,3.539,3.539,0,0,1,1.038-2.12q3.78-3.78,7.565-7.57a4.655,4.655,0,0,1,2.587-1.32c0.239-.04.483-0.06,0.724-0.08h0.033l0.256,0.03a4.143,4.143,0,0,1,1.514.34,4.612,4.612,0,0,1,2.786,3.28c0.061,0.24.088,0.49,0.13,0.74v0.69Z" transform="translate(-403 -1850.25)"/>
</svg>
