<svg xmlns="http://www.w3.org/2000/svg" width="15.69" height="12.25" viewBox="0 0 15.69 12.25">
  <defs>
    <style>
      .cls-1 {
        fill: #e21d24;
        fill-rule: evenodd;
      }
    </style>
  </defs>
  <path id="icon-email-red" class="cls-1" d="M1116.77,26.414v6.74a0.257,0.257,0,0,0-.02.085,3.021,3.021,0,0,1-1.94,2.462,6.544,6.544,0,0,1-.79.21h-10.17a0.833,0.833,0,0,0-.09-0.027,3.016,3.016,0,0,1-2.55-2.21,4.63,4.63,0,0,1-.12-0.519V26.414l0.03-.085a3.006,3.006,0,0,1,1.88-2.437,5.926,5.926,0,0,1,.85-0.234h10.17a0.472,0.472,0,0,0,.08.027,3.065,3.065,0,0,1,2.59,2.331C1116.72,26.147,1116.75,26.281,1116.77,26.414Zm-7.83-1.531h-4.72a1.838,1.838,0,0,0-1.9,1.9v6a1.838,1.838,0,0,0,1.9,1.9h9.42a1.841,1.841,0,0,0,1.91-1.908V26.79a1.841,1.841,0,0,0-1.91-1.908h-4.7Zm1.85,5.787c-0.18.167-.35,0.306-0.5,0.459a1.842,1.842,0,0,1-2.72,0c-0.15-.152-0.31-0.293-0.5-0.468a0.712,0.712,0,0,1-.08.118q-1.17,1.222-2.34,2.443a0.642,0.642,0,0,1-.62.227,0.607,0.607,0,0,1-.32-1.016c0.22-.25.46-0.489,0.7-0.731q0.87-.907,1.74-1.811c0.03-.037.06-0.074,0.1-0.119-0.04-.047-0.08-0.087-0.12-0.126-0.79-.825-1.6-1.648-2.39-2.473a0.6,0.6,0,0,1-.14-0.7,0.605,0.605,0,0,1,.59-0.357,0.688,0.688,0,0,1,.46.242c1.14,1.174,2.27,2.347,3.41,3.52,0.13,0.135.26,0.271,0.4,0.406a0.609,0.609,0,0,0,.95,0q1.9-1.961,3.81-3.926a0.628,0.628,0,0,1,.61-0.227,0.619,0.619,0,0,1,.31,1.04c-0.31.325-.63,0.645-0.94,0.968-0.53.543-1.05,1.084-1.59,1.638,0.04,0.048.08,0.092,0.12,0.135,0.8,0.829,1.59,1.656,2.39,2.485a0.614,0.614,0,0,1-.45,1.072,0.682,0.682,0,0,1-.46-0.243q-1.17-1.223-2.34-2.443C1110.84,30.736,1110.81,30.694,1110.79,30.669Z" transform="translate(-1101.09 -23.656)"/>
</svg>
