<svg id="Группа_1" data-name="Группа 1" xmlns="http://www.w3.org/2000/svg" width="60" height="60" viewBox="0 0 60 60">
  <defs>
    <style>
      .cls-1 {
        fill: #e21d24;
      }

      .cls-2 {
        fill: #fff;
        fill-rule: evenodd;
      }
    </style>
  </defs>
  <circle class="cls-1" cx="30" cy="30" r="30"/>
  <path class="cls-2" d="M772.4,4220.91h0.9a4.187,4.187,0,0,1,2.285,1.27c0.4,0.43.838,0.8,1.242,1.22a1.118,1.118,0,0,0,1.02.34c0.667-.1,1.335-0.19,2-0.3a3.513,3.513,0,0,1,4.086,2.93c0.125,0.68.259,1.36,0.364,2.05a1.085,1.085,0,0,0,.627.87c0.685,0.36,1.371.71,2.038,1.1a3.352,3.352,0,0,1,1.617,2.15c0.037,0.14.077,0.29,0.116,0.43v0.84c-0.213.57-.408,1.14-0.642,1.7-0.19.45-.414,0.89-0.647,1.33a1.188,1.188,0,0,0,0,1.16,13.2,13.2,0,0,1,1.291,3.03v0.84a0.536,0.536,0,0,0-.05.11,3.565,3.565,0,0,1-2.02,2.67c-0.591.3-1.172,0.62-1.761,0.93a1.008,1.008,0,0,0-.556.78c-0.1.62-.218,1.24-0.324,1.87a3.507,3.507,0,0,1-4.023,3.17c-0.672-.07-1.341-0.17-2.006-0.29a1.215,1.215,0,0,0-1.167.36c-0.46.48-.95,0.93-1.431,1.39a3.494,3.494,0,0,1-5.023,0c-0.5-.47-1-0.95-1.48-1.43a1.064,1.064,0,0,0-.992-0.33c-0.668.1-1.338,0.19-2,.29a3.51,3.51,0,0,1-4.1-2.91c-0.125-.7-0.259-1.4-0.369-2.09a1.1,1.1,0,0,0-.618-0.85c-0.62-.31-1.233-0.64-1.848-0.97a3.546,3.546,0,0,1-1.773-2.12c-0.061-.19-0.1-0.39-0.154-0.58v-0.84c0.2-.55.386-1.11,0.612-1.64a14.49,14.49,0,0,1,.663-1.36,1.239,1.239,0,0,0,0-1.22,12.773,12.773,0,0,1-1.278-3v-0.84a1.4,1.4,0,0,0,.059-0.18,3.441,3.441,0,0,1,1.783-2.47c0.645-.36,1.3-0.7,1.956-1.04a1.059,1.059,0,0,0,.593-0.82c0.1-.62.216-1.23,0.318-1.84a3.518,3.518,0,0,1,4.01-3.19c0.681,0.07,1.36.18,2.036,0.29a1.154,1.154,0,0,0,1.138-.34c0.27-.29.58-0.55,0.851-0.84A4.791,4.791,0,0,1,772.4,4220.91Zm7.9,27.94a0.964,0.964,0,0,0,1.109-.85c0.116-.65.233-1.29,0.333-1.94a3.584,3.584,0,0,1,2.013-2.81c0.592-.3,1.177-0.62,1.761-0.94a0.947,0.947,0,0,0,.451-1.4c-0.3-.63-0.613-1.25-0.918-1.88a3.494,3.494,0,0,1,0-3.22c0.3-.62.605-1.24,0.9-1.85a0.961,0.961,0,0,0-.465-1.45c-0.632-.34-1.272-0.67-1.9-1.02a3.412,3.412,0,0,1-1.791-2.46c-0.134-.72-0.256-1.44-0.382-2.16a0.935,0.935,0,0,0-1.125-.87c-0.576.06-1.153,0.13-1.721,0.24a3.785,3.785,0,0,1-3.715-1.16c-0.4-.43-0.84-0.83-1.269-1.24a0.943,0.943,0,0,0-1.47,0c-0.529.51-1.044,1.03-1.577,1.52a3.48,3.48,0,0,1-3.026.93c-0.7-.11-1.4-0.21-2.1-0.29a0.926,0.926,0,0,0-1.12.84c-0.116.65-.234,1.29-0.333,1.94a3.594,3.594,0,0,1-2.012,2.81c-0.581.3-1.155,0.61-1.733,0.92a0.956,0.956,0,0,0-.48,1.42c0.3,0.63.613,1.25,0.918,1.88a3.5,3.5,0,0,1,0,3.22c-0.3.62-.605,1.23-0.9,1.85a0.959,0.959,0,0,0,.464,1.45c0.642,0.34,1.293.67,1.929,1.03a3.413,3.413,0,0,1,1.763,2.45c0.134,0.72.256,1.43,0.382,2.15a0.936,0.936,0,0,0,1.125.88c0.575-.07,1.152-0.13,1.72-0.24a3.768,3.768,0,0,1,3.717,1.16c0.4,0.43.841,0.83,1.269,1.24a0.949,0.949,0,0,0,1.47,0c0.514-.49,1.016-1,1.528-1.48a3.467,3.467,0,0,1,3.073-.97C778.917,4248.66,779.651,4248.76,780.3,4248.85Zm-6.1-13.87c0,1.3.007,2.61,0,3.92a1.285,1.285,0,0,1-2.547.25,1.967,1.967,0,0,1-.025-0.39q0-3.8,0-7.6a1.294,1.294,0,1,1,2.576.01Q774.2,4233.075,774.2,4234.98Zm-1.292,10.3a1.61,1.61,0,1,1,1.614-1.61A1.611,1.611,0,0,1,772.909,4245.28Z" transform="translate(-743 -4207)"/>
</svg>
