<svg id="icon-term-1" xmlns="http://www.w3.org/2000/svg" width="90" height="90" viewBox="0 0 90 90">
  <defs>
    <style>
      .cls-1 {
        fill: #e21d24;
      }

      .cls-2 {
        fill: #fff;
        fill-rule: evenodd;
      }
    </style>
  </defs>
  <circle class="cls-1" cx="45" cy="45" r="45"/>
  <path class="cls-2" d="M491.356,10554.1a5.854,5.854,0,0,1-.981,2.2,4.446,4.446,0,0,1-3.669,1.8,4.172,4.172,0,0,1-1.575,0,0.461,0.461,0,0,0-.488.4,4.714,4.714,0,0,1-8.9-.8,4.723,4.723,0,0,1,8.878-3.1,0.548,0.548,0,0,0,.58.4h1.418a1.565,1.565,0,0,0,1.58-1.6c0.007-4.3.026-8.5-.008-12.8a4.574,4.574,0,0,0-4.415-4.5c-2.572-.1-5.148,0-7.722,0h-0.147v0.5c0,3.5,0,6.9,0,10.4a1.55,1.55,0,0,1-2.069,1.6,1.609,1.609,0,0,1-1.078-1.4c-0.012-.3,0-0.5,0-0.8,0-4.9,0-9.9,0-14.8a1.6,1.6,0,0,0-1.814-1.8H455.968a1.6,1.6,0,0,0-1.815,1.8v21.6a1.6,1.6,0,0,0,1.82,1.8h1.182a0.549,0.549,0,0,0,.579-0.4,4.721,4.721,0,0,1,9.03,2,4.722,4.722,0,0,1-9.035,1.9,0.5,0.5,0,0,0-.542-0.4,10.768,10.768,0,0,1-2.543-.1,4.648,4.648,0,0,1-3.567-3.7,0.321,0.321,0,0,0-.077-0.2v-23.4a1.486,1.486,0,0,0,.076-0.2,4.342,4.342,0,0,1,1.956-3,14.326,14.326,0,0,1,2.067-.9h16.71c0.032,0,.063.1,0.1,0.1a4.713,4.713,0,0,1,4,4.9c-0.017.5,0,.9,0,1.3h7.607a7.839,7.839,0,0,1,7.568,5.9c0.113,0.4.184,0.8,0.274,1.2v14.1Zm-27.746,2.5a1.567,1.567,0,0,0-1.563-1.6,1.593,1.593,0,0,0-1.587,1.6,1.706,1.706,0,0,0,1.562,1.6A1.594,1.594,0,0,0,463.61,10556.6Zm16.708,1.6a1.652,1.652,0,0,0,1.578-1.6,1.575,1.575,0,1,0-3.15,0A1.718,1.718,0,0,0,480.318,10558.2Zm-16.906-9.5H459a1.6,1.6,0,1,1,0-3.2h8.9a1.6,1.6,0,1,1,0,3.2h-4.488Zm18.486-6.3c0,0.5,0,1,0,1.5a1.535,1.535,0,0,0,1.558,1.6,1.654,1.654,0,0,1,1.591,1.7,1.571,1.571,0,0,1-1.687,1.5,4.739,4.739,0,0,1-4.609-4.6c-0.026-1.1-.016-2.2,0-3.3a1.573,1.573,0,1,1,3.145,0c0.014,0.5,0,1.1,0,1.6h0Zm-10.681,12.6h0.944a1.55,1.55,0,0,1,1.538,1.6,1.526,1.526,0,0,1-1.538,1.5,6.479,6.479,0,0,1-1.966,0,1.525,1.525,0,0,1-1.537-1.5,1.548,1.548,0,0,1,1.537-1.6h1.022Z" transform="translate(-426 -10499)"/>
</svg>
