<svg xmlns="http://www.w3.org/2000/svg" width="11.094" height="12.281" viewBox="0 0 11.094 12.281">
  <defs>
    <style>
      .cls-1 {
        fill: #fff;
        fill-rule: evenodd;
      }
    </style>
  </defs>
  <path class="cls-1" d="M354.359,696.5h-0.574a1.3,1.3,0,0,1-.763-0.984,3.659,3.659,0,0,1-.054-0.6q0-4.572,0-9.142a3.411,3.411,0,0,1,.05-0.57,1.074,1.074,0,0,1,1.462-.935,3,3,0,0,1,.666.3q3.943,2.252,7.88,4.513a4.947,4.947,0,0,1,.455.292,1.114,1.114,0,0,1,.011,1.953,6.548,6.548,0,0,1-.564.357c-1.805,1.036-3.607,2.078-5.419,3.1C356.468,695.366,355.41,695.924,354.359,696.5Z" transform="translate(-352.969 -684.219)"/>
</svg>
