<svg id="Группа_3" data-name="Группа 3" xmlns="http://www.w3.org/2000/svg" width="32" height="32" viewBox="0 0 32 32">
  <defs>
    <style>
      .cls-1 {
        fill: #e21d24;
      }

      .cls-2 {
        fill: #fff;
        fill-rule: evenodd;
      }
    </style>
  </defs>
  <circle class="cls-1" cx="16" cy="16" r="16"/>
  <path class="cls-2" d="M397.651,12706.6v0.7c-0.009.1-.019,0.1-0.025,0.1-0.109.4-.189,0.8-0.332,1.2a11.835,11.835,0,0,1-1.386,2.7,25.624,25.624,0,0,1-2.548,3.6,2.758,2.758,0,0,1-4.331,0c-0.714-1-1.408-1.9-2.08-2.9a11.883,11.883,0,0,1-1.711-3.1,5.15,5.15,0,0,1-.471-2,6.3,6.3,0,0,1,1.677-4.3,6.089,6.089,0,0,1,3.291-1.9c0.316-.1.64-0.1,0.961-0.2h0.933a3.368,3.368,0,0,1,.976.2,6.427,6.427,0,0,1,4.928,5C397.579,12706,397.612,12706.3,397.651,12706.6Zm-6.439-4.9a2.39,2.39,0,0,0-.837.1,5.133,5.133,0,0,0-4.22,3.8,3.714,3.714,0,0,0,.137,2.7c0.171,0.4.331,0.8,0.525,1.2a29.654,29.654,0,0,0,3.168,4.6,1.6,1.6,0,0,0,2.5,0c0.578-.8,1.144-1.5,1.688-2.3a15.91,15.91,0,0,0,1.755-3,4.547,4.547,0,0,0,.444-2.8A5.24,5.24,0,0,0,391.212,12701.7Zm0.036,2.7a2.5,2.5,0,0,1,2.55,2.6,2.55,2.55,0,0,1-2.586,2.5,2.576,2.576,0,0,1-2.531-2.5A2.531,2.531,0,0,1,391.248,12704.4Zm1.345,2.5a1.354,1.354,0,1,0-1.352,1.4A1.346,1.346,0,0,0,392.593,12706.9Z" transform="translate(-375 -12692)"/>
</svg>
