<svg id="icon-term-2" xmlns="http://www.w3.org/2000/svg" width="90" height="90" viewBox="0 0 90 90">
  <defs>
    <style>
      .cls-1 {
        fill: #e21d24;
      }

      .cls-2 {
        fill: #fff;
        fill-rule: evenodd;
      }
    </style>
  </defs>
  <circle class="cls-1" cx="45" cy="45" r="45"/>
  <path class="cls-2" d="M1090.57,10538c-0.1.5-.2,1-0.32,1.4a10.55,10.55,0,0,1-10.17,8.1h-7.18v3.3h5.17a1.8,1.8,0,1,1,.01,3.6h-5.22v0.6c0,2.2.01,2.3-.01,4.5a1.725,1.725,0,0,1-1.58,1.7,1.771,1.771,0,0,1-1.92-1.4,3.019,3.019,0,0,1-.03-0.6c-0.01-2.3-.01-2.5-0.01-4.8h-1.26a10.462,10.462,0,0,0-1.77,0,2.037,2.037,0,0,1-2.28-1.3v-0.9a2.1,2.1,0,0,1,2.28-1.4,6.931,6.931,0,0,0,1.44,0h1.57v-3.3h-3.01a2.031,2.031,0,0,1-2.28-1.3v-0.9a1.966,1.966,0,0,1,2.22-1.3h3.09v-0.8c0-4.9.02-9.8-.01-14.7a2.022,2.022,0,0,1,1.34-2.2h10.72a10.667,10.667,0,0,1,8.91,8.1c0.11,0.4.2,0.9,0.3,1.4v2.2Zm-17.69,6h7.28a5.938,5.938,0,0,0,1.32-.2,7.118,7.118,0,0,0,5.52-7.6,7.033,7.033,0,0,0-7.08-6.4h-7.04v14.2Z" transform="translate(-1032 -10499)"/>
</svg>
