<svg xmlns="http://www.w3.org/2000/svg" width="14.15" height="14.156" viewBox="0 0 14.15 14.156">
  <defs>
    <style>
      .cls-1 {
        fill: #e21d24;
        fill-rule: evenodd;
      }
    </style>
  </defs>
  <path id="icon-phone-red" class="cls-1" d="M1268.82,28.618a3.89,3.89,0,0,0-3.2-3.73,4.854,4.854,0,0,0-.64-0.057,0.54,0.54,0,0,0-.58.538,0.55,0.55,0,0,0,.57.567,2.777,2.777,0,0,1,2.75,2.763,0.551,0.551,0,0,0,.86.458A0.559,0.559,0,0,0,1268.82,28.618Zm-2.21.036a1.672,1.672,0,0,0-1.6-1.612,0.554,0.554,0,1,0-.05,1.106,0.552,0.552,0,0,1,.54.54A0.556,0.556,0,1,0,1266.61,28.654Zm-9.74-1.171a4.114,4.114,0,0,1,.11-0.485,2.617,2.617,0,0,1,.66-1.161c0.28-.284.56-0.566,0.84-0.842a1.65,1.65,0,0,1,2.31,0c0.54,0.525,1.07,1.056,1.6,1.594a1.656,1.656,0,0,1,.04,2.27,0.584,0.584,0,0,0,.03.933c0.48,0.477.96,0.953,1.43,1.429a0.567,0.567,0,0,0,.87.017,1.657,1.657,0,0,1,2.33.048c0.51,0.507,1.02,1.016,1.52,1.525a1.655,1.655,0,0,1,0,2.39c-0.24.246-.48,0.488-0.73,0.734a2.725,2.725,0,0,1-1.65.817,0.405,0.405,0,0,0-.06.022h-0.56a0.127,0.127,0,0,0-.05-0.022,2.837,2.837,0,0,1-1.7-.864c-0.66-.676-1.34-1.343-2.01-2.014-1.4-1.4-2.79-2.794-4.19-4.193a2.749,2.749,0,0,1-.7-1.221c-0.03-.141-0.06-0.285-0.09-0.428V27.484Zm9.02,8.191a1.623,1.623,0,0,0,1.12-.439c0.29-.272.57-0.554,0.85-0.839a0.525,0.525,0,0,0-.01-0.771c-0.51-.526-1.04-1.047-1.56-1.565a0.542,0.542,0,0,0-.78,0,1.657,1.657,0,0,1-2.4-.054c-0.51-.5-1-1-1.5-1.5a1.657,1.657,0,0,1-.04-2.34,0.55,0.55,0,0,0-.01-0.834q-0.75-.755-1.5-1.506a0.55,0.55,0,0,0-.84,0c-0.24.236-.48,0.475-0.72,0.713a1.658,1.658,0,0,0,.01,2.428c0.66,0.669,1.33,1.337,2,2.006,1.39,1.391,2.79,2.783,4.18,4.176A1.686,1.686,0,0,0,1265.89,35.674Zm5.14-6.863L1271,28.9a0.562,0.562,0,0,1-.61.346,0.548,0.548,0,0,1-.46-0.546,4.762,4.762,0,0,0-.58-2.308,4.887,4.887,0,0,0-3.97-2.648c-0.14-.015-0.28-0.018-0.42-0.022a0.553,0.553,0,0,1-.18-1.08c0.02-.008.04-0.018,0.06-0.028h0.5a0.667,0.667,0,0,0,.1.023,5.854,5.854,0,0,1,2.83.969,5.984,5.984,0,0,1,2.66,3.986c0.04,0.238.07,0.48,0.1,0.721v0.5Zm-2.21-.193a0.559,0.559,0,0,1-.24.538,0.551,0.551,0,0,1-.86-0.458,2.777,2.777,0,0,0-2.75-2.763,0.55,0.55,0,0,1-.57-0.567,0.54,0.54,0,0,1,.58-0.538,4.854,4.854,0,0,1,.64.057A3.89,3.89,0,0,1,1268.82,28.618Zm-2.21.036a0.556,0.556,0,1,1-1.11.033,0.552,0.552,0,0,0-.54-0.54,0.554,0.554,0,1,1,.05-1.106A1.672,1.672,0,0,1,1266.61,28.654Z" transform="translate(-1256.88 -22.625)"/>
</svg>
