<svg xmlns="http://www.w3.org/2000/svg" width="20.031" height="19.1" viewBox="0 0 20.031 19.1">
  <defs>
    <style>
      .cls-1 {
        fill: #44bfff;
        fill-rule: evenodd;
      }
    </style>
  </defs>
  <path class="cls-1" d="M378.042,7263.15c-0.038.22-.07,0.45-0.114,0.67a5.694,5.694,0,0,1-1.625,2.97q-4.535,4.545-9.065,9.07a0.726,0.726,0,0,1-1.076.06,0.712,0.712,0,0,1-.032-0.99,2.443,2.443,0,0,1,.191-0.19q4.5-4.515,9.009-9.02a4.205,4.205,0,1,0-5.941-5.95q-4.535,4.545-9.064,9.07a2.866,2.866,0,0,0,3.82,4.27,2.681,2.681,0,0,0,.215-0.2q4.1-4.11,8.206-8.21a1.325,1.325,0,0,0-1.713-2.02c-0.081.07-.157,0.14-0.231,0.21q-3.868,3.87-7.735,7.74a0.765,0.765,0,0,1-.73.28,0.713,0.713,0,0,1-.457-1.12,1.137,1.137,0,0,1,.141-0.16q3.93-3.93,7.861-7.87a2.777,2.777,0,1,1,3.913,3.94c-0.895.91-1.8,1.8-2.7,2.71l-5.494,5.49a4.317,4.317,0,0,1-7.383-2.41,1.8,1.8,0,0,0-.041-0.19v-0.79a0.645,0.645,0,0,0,.036-0.13,4.281,4.281,0,0,1,1.248-2.55q4.548-4.545,9.1-9.1a5.544,5.544,0,0,1,3.111-1.59c0.288-.05.581-0.07,0.871-0.1h0.039c0.1,0.01.206,0.03,0.309,0.03a5.165,5.165,0,0,1,1.821.41,5.591,5.591,0,0,1,3.351,3.95c0.073,0.29.1,0.6,0.156,0.9v0.82Z" transform="translate(-358 -7257.03)"/>
</svg>
