<svg xmlns="http://www.w3.org/2000/svg" width="16.813" height="16.81" viewBox="0 0 16.813 16.81">
  <defs>
    <style>
      .cls-1 {
        fill: #e21d24;
        fill-rule: evenodd;
      }
    </style>
  </defs>
  <path class="cls-1" d="M403,5584.47v-8.4c0.047-.35.079-0.7,0.142-1.04a8.419,8.419,0,0,1,6.882-6.71c0.327-.06.659-0.09,0.989-0.13h1.018c0.3,0.04.605,0.07,0.9,0.13a8.426,8.426,0,0,1,6.747,6.74c0.053,0.31.088,0.63,0.131,0.94v1.02a0.659,0.659,0,0,0-.028.13,8.44,8.44,0,0,1-1.3,3.93,8.126,8.126,0,0,1-5.633,3.79c-0.327.06-.659,0.09-0.989,0.13h-1.018l-0.11-.03a8.17,8.17,0,0,1-3.1-.84,2.913,2.913,0,0,0-3.4.56,3.583,3.583,0,0,1-.45.31h-0.263A0.78,0.78,0,0,1,403,5584.47Zm1.32-1.47a0.932,0.932,0,0,1,.086-0.04,4.188,4.188,0,0,1,3.836,0,7.111,7.111,0,0,0,8.455-1.69,6.981,6.981,0,0,0,1.69-5.95,7.057,7.057,0,0,0-9.611-5.29,7,7,0,0,0-4.459,6.48c-0.011,2.12,0,4.23,0,6.35C404.314,5582.9,404.317,5582.94,404.32,5583Zm9.123-6.42a0.82,0.82,0,0,1,1.64,0A0.82,0.82,0,1,1,413.443,5576.58Zm-2.824,0a0.82,0.82,0,0,1,1.64,0A0.82,0.82,0,1,1,410.619,5576.58Zm-1.184.01a0.817,0.817,0,0,1-.806.82,0.82,0.82,0,1,1,0-1.64A0.827,0.827,0,0,1,409.435,5576.59Z" transform="translate(-403 -5568.19)"/>
</svg>
