<svg id="icon-yt" xmlns="http://www.w3.org/2000/svg" width="39" height="39" viewBox="0 0 39 39">
  <defs>
    <style>
      .cls-1 {
        fill: red;
      }

      .cls-2 {
        fill: #fff;
        fill-rule: evenodd;
      }
    </style>
  </defs>
  <circle class="cls-1" cx="19.5" cy="19.5" r="19.5"/>
  <path class="cls-2" d="M1398.43,9921.43v8.51a0.936,0.936,0,0,0-.04.16,3.251,3.251,0,0,1-1.94,2.6,8.1,8.1,0,0,1-.99.3h-12.72c-0.04-.01-0.08-0.03-0.12-0.04a3.319,3.319,0,0,1-2.73-2.46c-0.05-.18-0.08-1.37-0.12-1.56v-7.51c0.01-.05.03,0.91,0.04,0.86,0.21-1.6,1.52-3.86,3.13-3.88,3.77-.03,8.54-0.03,12.32,0,1.43,0.01,2.67,2.06,3.04,3.46C1398.35,9922.05,1398.39,9921.24,1398.43,9921.43Zm-6.51,4.28c-1.56-.92-3.08-1.81-4.63-2.71v5.42C1388.84,9927.51,1390.36,9926.62,1391.92,9925.71Z" transform="translate(-1370 -9906)"/>
</svg>
