<svg xmlns="http://www.w3.org/2000/svg" width="19.16" height="21.219" viewBox="0 0 19.16 21.219">
  <defs>
    <style>
      .cls-1 {
        fill: #e21d24;
        fill-rule: evenodd;
      }
    </style>
  </defs>
  <path class="cls-1" d="M1580.72,849.215h-0.99a2.232,2.232,0,0,1-1.32-1.7,6.044,6.044,0,0,1-.09-1.04q-0.015-7.9,0-15.793a6.492,6.492,0,0,1,.08-0.986,1.857,1.857,0,0,1,2.53-1.615,5.306,5.306,0,0,1,1.15.512q6.81,3.888,13.61,7.794a8.748,8.748,0,0,1,.79.5,1.929,1.929,0,0,1,.02,3.374,9.811,9.811,0,0,1-.98.617c-3.12,1.791-6.23,3.592-9.36,5.361C1584.36,847.262,1582.53,848.226,1580.72,849.215Z" transform="translate(-1578.31 -828)"/>
</svg>
