<svg xmlns="http://www.w3.org/2000/svg" width="10.906" height="16" viewBox="0 0 10.906 16">
  <defs>
    <style>
      .cls-1 {
        fill: #e21d24;
        fill-rule: evenodd;
      }
    </style>
  </defs>
  <path id="icon-price" class="cls-1" d="M624.9,10804.1c-0.044.2-.083,0.4-0.131,0.6a4.342,4.342,0,0,1-4.175,3.3h-2.944v2.2h2.12a0.7,0.7,0,1,1,0,1.4h-2.141v0.3c0,0.8,0,1.7,0,2.6a0.665,0.665,0,0,1-.649.7,0.678,0.678,0,0,1-.785-0.5,1.589,1.589,0,0,1-.016-0.3c0-.9,0-1.8,0-2.8h-1.243a0.769,0.769,0,0,1-.937-0.5v-0.4a0.767,0.767,0,0,1,.936-0.5h1.232v-2.2h-1.231a0.947,0.947,0,0,1-.937-0.6v-0.3a0.916,0.916,0,0,1,.912-0.6h1.268v-0.3c0-2,.008-4-0.006-6a0.759,0.759,0,0,1,.551-0.9h4.395a4.244,4.244,0,0,1,3.655,3.3c0.046,0.2.084,0.4,0.126,0.6v0.9Zm-7.257,2.4h2.986a1.03,1.03,0,0,0,.539-0.1,2.846,2.846,0,0,0,2.268-3.1,2.881,2.881,0,0,0-2.906-2.6h-2.887v5.8Z" transform="translate(-614 -10799.3)"/>
</svg>
