<svg xmlns="http://www.w3.org/2000/svg" width="15.406" height="10.843" viewBox="0 0 15.406 10.843">
  <defs>
    <style>
      .cls-1 {
        fill: #e21d24;
        fill-rule: evenodd;
      }
    </style>
  </defs>
  <path class="cls-1" d="M851.319,758.551H852.1c0.088,0.013.176,0.028,0.264,0.04a7.084,7.084,0,0,1,2.585.884,12.221,12.221,0,0,1,3.623,3.147c0.31,0.39.566,0.823,0.847,1.236V764.1c-0.056.1-.1,0.216-0.17,0.315a13.3,13.3,0,0,1-2.471,2.786,9.9,9.9,0,0,1-2.954,1.8,5.758,5.758,0,0,1-2.761.367,7.218,7.218,0,0,1-2.785-.993,12.511,12.511,0,0,1-3.572-3.214c-0.259-.336-0.473-0.706-0.708-1.06v-0.241a3.22,3.22,0,0,1,.154-0.291,13.23,13.23,0,0,1,3.18-3.359,8.381,8.381,0,0,1,3.175-1.519C850.776,758.63,851.049,758.6,851.319,758.551Zm0.489,9.651c0.112-.01.322-0.022,0.53-0.05a5.877,5.877,0,0,0,2.29-.866,12.667,12.667,0,0,0,3.4-3.227,0.115,0.115,0,0,0-.007-0.169c-0.255-.311-0.5-0.632-0.762-0.933a11.2,11.2,0,0,0-2.821-2.4,5.483,5.483,0,0,0-2.618-.8,5.338,5.338,0,0,0-2.843.8A12.368,12.368,0,0,0,845.4,763.9a0.116,0.116,0,0,0,.007.17c0.138,0.172.269,0.35,0.409,0.52a11.853,11.853,0,0,0,3.161,2.8A5.605,5.605,0,0,0,851.808,768.2Zm-3.109-4.227a3.012,3.012,0,1,1,3,3.018A3.018,3.018,0,0,1,848.7,763.975Zm4.819,0a1.807,1.807,0,1,0-1.81,1.81A1.815,1.815,0,0,0,853.518,763.977Z" transform="translate(-844 -758.563)"/>
</svg>
