<svg id="Группа_2" data-name="Группа 2" xmlns="http://www.w3.org/2000/svg" width="32" height="32" viewBox="0 0 32 32">
  <defs>
    <style>
      .cls-1 {
        fill: #e21d24;
      }

      .cls-2 {
        fill: #fff;
        fill-rule: evenodd;
      }
    </style>
  </defs>
  <circle class="cls-1" cx="16" cy="16" r="16"/>
  <path class="cls-2" d="M398.774,12831.4v6.8h-0.027a3.1,3.1,0,0,1-1.94,2.5c-0.25.1-.526,0.1-0.79,0.2H385.762a3.063,3.063,0,0,1-2.553-2.2c-0.054-.2-0.079-0.4-0.118-0.5v-6.8c0.009,0,.022,0,0.027-0.1a3.088,3.088,0,0,1,1.88-2.4,2.53,2.53,0,0,1,.85-0.2H396.1a3.127,3.127,0,0,1,2.587,2.3C398.72,12831.1,398.746,12831.3,398.774,12831.4Zm-7.838-1.5h-4.715a1.841,1.841,0,0,0-1.905,1.9v6a1.84,1.84,0,0,0,1.9,1.9h9.417a1.841,1.841,0,0,0,1.912-1.9v-6a1.841,1.841,0,0,0-1.912-1.9h-4.7Zm1.85,5.8c-0.179.1-.342,0.3-0.492,0.4a1.847,1.847,0,0,1-2.725,0,5.867,5.867,0,0,0-.5-0.4c-0.018,0-.042,0-0.08.1q-1.17,1.2-2.342,2.4a0.508,0.508,0,0,1-.615.2,0.592,0.592,0,0,1-.326-1c0.226-.2.465-0.5,0.7-0.7l1.74-1.8c0.035,0,.068-0.1.108-0.1-0.043-.1-0.08-0.1-0.119-0.2l-2.4-2.4a0.608,0.608,0,0,1-.138-0.7,0.575,0.575,0,0,1,.592-0.4,0.538,0.538,0,0,1,.462.3c1.135,1.1,2.273,2.3,3.41,3.5a1.514,1.514,0,0,1,.395.4,0.617,0.617,0,0,0,.953,0c1.27-1.3,2.538-2.6,3.8-4a1.192,1.192,0,0,1,.615-0.2,0.725,0.725,0,0,1,.464.4,0.712,0.712,0,0,1-.157.7c-0.31.3-.624,0.6-0.937,0.9-0.526.6-1.052,1.1-1.59,1.7,0.043,0,.082.1,0.122,0.1,0.8,0.8,1.592,1.7,2.387,2.5a0.6,0.6,0,0,1,.147.7,0.731,0.731,0,0,1-.591.4,2.987,2.987,0,0,1-.462-0.3q-1.168-1.2-2.342-2.4C392.836,12835.7,392.806,12835.7,392.786,12835.7Z" transform="translate(-375 -12819)"/>
</svg>
