<svg id="Группа_1" data-name="Группа 1" xmlns="http://www.w3.org/2000/svg" width="45" height="45" viewBox="0 0 45 45">
  <defs>
    <style>
      .cls-1 {
        fill: #e21d24;
      }

      .cls-2 {
        fill: #fff;
        fill-rule: evenodd;
      }
    </style>
  </defs>
  <circle class="cls-1" cx="22.5" cy="22.5" r="22.5"/>
  <path class="cls-2" d="M407.8,812.654c-0.039.232-.073,0.463-0.118,0.7a5.93,5.93,0,0,1-1.687,3.084q-4.7,4.706-9.406,9.412a0.758,0.758,0,0,1-1.117.059,0.739,0.739,0,0,1-.033-1.027c0.063-.071.132-0.136,0.2-0.2l9.348-9.355a4.362,4.362,0,1,0-6.165-6.169q-4.706,4.7-9.4,9.41a2.972,2.972,0,0,0,3.963,4.428c0.077-.067.152-0.136,0.224-0.207q4.257-4.26,8.515-8.521a1.373,1.373,0,0,0-1.778-2.093c-0.084.068-.163,0.144-0.239,0.219q-4.014,4.015-8.027,8.034a0.805,0.805,0,0,1-.758.288,0.745,0.745,0,0,1-.474-1.167,1.362,1.362,0,0,1,.147-0.167q4.077-4.082,8.157-8.161a2.883,2.883,0,1,1,4.061,4.09c-0.929.937-1.866,1.868-2.8,2.8q-2.85,2.853-5.7,5.7a4.479,4.479,0,0,1-7.661-2.5c-0.01-.068-0.029-0.134-0.043-0.2V820.3a0.949,0.949,0,0,0,.038-0.136,4.413,4.413,0,0,1,1.3-2.645q4.717-4.726,9.442-9.446A5.771,5.771,0,0,1,401,806.412c0.3-.047.6-0.065,0.9-0.1h0.041c0.107,0.012.213,0.03,0.32,0.035a5.282,5.282,0,0,1,1.89.425,5.787,5.787,0,0,1,3.477,4.092c0.076,0.306.109,0.622,0.162,0.935v0.853Z" transform="translate(-375 -795)"/>
</svg>
