<svg id="icon-phone-red-round" xmlns="http://www.w3.org/2000/svg" width="37" height="37" viewBox="0 0 37 37">
  <defs>
    <style>
      .cls-1 {
        fill: #e21d24;
      }

      .cls-2 {
        fill: #fff;
        fill-rule: evenodd;
      }
    </style>
  </defs>
  <circle class="cls-1" cx="18.5" cy="18.5" r="18.5"/>
  <path class="cls-2" d="M613.619,34.523a4.885,4.885,0,0,0-4.018-4.688,6.092,6.092,0,0,0-.812-0.072,0.688,0.688,0,0,0-.731.676,0.7,0.7,0,0,0,.717.712,3.487,3.487,0,0,1,3.456,3.472,0.665,0.665,0,0,0,.377.619,0.652,0.652,0,0,0,.707-0.043A0.7,0.7,0,0,0,613.619,34.523Zm-2.781.045a2.1,2.1,0,0,0-2.009-2.026,0.7,0.7,0,1,0-.06,1.39,0.7,0.7,0,0,1,.679.678A0.7,0.7,0,1,0,610.838,34.568ZM598.6,33.1c0.044-.2.08-0.409,0.134-0.609a3.291,3.291,0,0,1,.838-1.459c0.348-.357.7-0.711,1.056-1.058a2.072,2.072,0,0,1,2.9,0q1.013,0.99,2,2a2.081,2.081,0,0,1,.059,2.852A0.723,0.723,0,0,0,605.631,36q0.9,0.9,1.8,1.8a0.7,0.7,0,0,0,1.085.022,2.084,2.084,0,0,1,2.929.061q0.961,0.956,1.918,1.917a2.081,2.081,0,0,1,0,3c-0.305.309-.615,0.614-0.921,0.922a3.435,3.435,0,0,1-2.076,1.026,0.53,0.53,0,0,0-.08.028h-0.7a0.293,0.293,0,0,0-.06-0.027,3.535,3.535,0,0,1-2.137-1.085c-0.838-.849-1.686-1.688-2.529-2.531q-2.634-2.634-5.267-5.27a3.372,3.372,0,0,1-.875-1.535c-0.047-.178-0.079-0.358-0.118-0.538V33.1ZM609.936,43.39a2.049,2.049,0,0,0,1.414-.552c0.362-.342.714-0.7,1.059-1.055a0.67,0.67,0,0,0,0-.969q-0.975-.991-1.966-1.967a0.685,0.685,0,0,0-.984,0,2.083,2.083,0,0,1-3.017-.068q-0.943-.937-1.88-1.881a2.082,2.082,0,0,1-.047-2.941,0.7,0.7,0,0,0-.01-1.048q-0.944-.949-1.893-1.893a0.694,0.694,0,0,0-1.058,0c-0.3.3-.6,0.6-0.9,0.9a2.081,2.081,0,0,0,.007,3.051q1.258,1.262,2.519,2.521,2.624,2.622,5.247,5.248A2.147,2.147,0,0,0,609.936,43.39Zm6.466-8.624c-0.016.037-.031,0.075-0.047,0.112a0.7,0.7,0,0,1-.768.435,0.691,0.691,0,0,1-.574-0.687,6.036,6.036,0,0,0-.723-2.9,6.154,6.154,0,0,0-5-3.327c-0.172-.018-0.346-0.022-0.52-0.027a0.7,0.7,0,0,1-.235-1.357,0.846,0.846,0,0,0,.078-0.035h0.626a0.875,0.875,0,0,0,.134.029,7.337,7.337,0,0,1,3.552,1.218,7.528,7.528,0,0,1,3.342,5.009c0.058,0.3.09,0.6,0.134,0.906v0.626Zm-2.783-.243a0.7,0.7,0,0,1-.3.675,0.652,0.652,0,0,1-.707.043,0.665,0.665,0,0,1-.377-0.619,3.487,3.487,0,0,0-3.456-3.472,0.7,0.7,0,0,1-.717-0.712,0.688,0.688,0,0,1,.731-0.676,6.092,6.092,0,0,1,.812.072A4.885,4.885,0,0,1,613.619,34.523Zm-2.781.045a0.7,0.7,0,1,1-1.39.042,0.7,0.7,0,0,0-.679-0.678,0.7,0.7,0,1,1,.06-1.39A2.1,2.1,0,0,1,610.838,34.568Z" transform="translate(-589 -18)"/>
</svg>
