<svg id="icon-whatsapp" xmlns="http://www.w3.org/2000/svg" width="36" height="36" viewBox="0 0 36 36">
  <defs>
    <style>
      .cls-1 {
        fill: #3fbf50;
      }

      .cls-2 {
        fill: #fff;
        fill-rule: evenodd;
      }
    </style>
  </defs>
  <circle class="cls-1" cx="18" cy="18" r="18"/>
  <path id="Forma_1" data-name="Forma 1" class="cls-2" d="M205.21,7157.64a9.544,9.544,0,0,1-14.14,8.28l-5.277,1.68,1.721-5.08a9.35,9.35,0,0,1-1.368-4.88A9.532,9.532,0,0,1,205.21,7157.64Zm-9.532-7.96a8,8,0,0,0-8.014,7.96,7.856,7.856,0,0,0,1.527,4.66l-1,2.95,3.08-.98A7.974,7.974,0,1,0,195.678,7149.68Zm4.813,10.14a1.181,1.181,0,0,0-.448-0.28c-0.233-.11-1.383-0.67-1.6-0.75a0.375,0.375,0,0,0-.526.12c-0.155.23-.6,0.75-0.74,0.91a0.359,0.359,0,0,1-.506.05,6.228,6.228,0,0,1-1.879-1.15,6.93,6.93,0,0,1-1.3-1.6,0.332,0.332,0,0,1,.1-0.47c0.105-.11.233-0.28,0.35-0.41a1.585,1.585,0,0,0,.234-0.39,0.412,0.412,0,0,0-.02-0.4c-0.058-.12-0.526-1.26-0.72-1.72s-0.39-.39-0.526-0.39-0.292-.02-0.448-0.02a0.869,0.869,0,0,0-.623.29,2.579,2.579,0,0,0-.818,1.93,4.484,4.484,0,0,0,.954,2.4,9.527,9.527,0,0,0,3.991,3.5c2.377,0.93,2.377.62,2.8,0.58a2.367,2.367,0,0,0,1.577-1.1A1.905,1.905,0,0,0,200.491,7159.82Z" transform="translate(-177 -7140)"/>
</svg>
