<svg xmlns="http://www.w3.org/2000/svg" width="19.531" height="19.532" viewBox="0 0 19.531 19.532">
  <defs>
    <style>
      .cls-1 {
        fill: #e21d24;
        fill-rule: evenodd;
      }
    </style>
  </defs>
  <path class="cls-1" d="M385.006,479.53h1.145a1.1,1.1,0,0,0,.147.032,9.3,9.3,0,0,1,4.263,1.344,9.639,9.639,0,0,1,4.636,6.712c0.069,0.366.1,0.739,0.153,1.109v1.144c-0.016.137-.032,0.275-0.047,0.412a9.8,9.8,0,0,1-9.314,8.771,9.282,9.282,0,0,1-5.389-1.362,9.62,9.62,0,0,1-4.639-6.712c-0.069-.366-0.1-0.739-0.153-1.109v-1.144c0.016-.138.032-0.276,0.047-0.412a9.8,9.8,0,0,1,8.041-8.633C384.264,479.617,384.636,479.58,385.006,479.53Zm0.578,18.284a8.515,8.515,0,1,0-8.522-8.51A8.52,8.52,0,0,0,385.584,497.814Zm-2.526-8.824v-3.869a0.645,0.645,0,0,1,.736-0.738c0.992,0.006,1.986-.021,2.975.035a3.126,3.126,0,0,1,2.565,1.431,2.716,2.716,0,0,1-1.306,4.086,4.714,4.714,0,0,1-1.754.306c-0.579,0-1.157,0-1.736,0h-0.217V491.1h0.225q1.554,0,3.11,0a0.649,0.649,0,0,1,.665.412,0.627,0.627,0,0,1-.627.84c-0.826,0-1.653,0-2.48,0h-0.9v0.326c0,0.293.006,0.585,0,.878a0.626,0.626,0,1,1-1.249-.018c0-.376,0-0.751,0-1.126a0.379,0.379,0,0,0-.018-0.06h-0.691a0.63,0.63,0,1,1-.01-1.253c0.233,0,.467,0,0.722,0v-0.857c-0.261,0-.507.007-0.752,0a0.624,0.624,0,0,1-.622-0.828,0.613,0.613,0,0,1,.578-0.419c0.127,0,.254,0,0.382,0h0.414Zm1.261,0h1.851a3.568,3.568,0,0,0,.4-0.017,4.865,4.865,0,0,0,.713-0.106,1.593,1.593,0,0,0,1.172-.966,1.572,1.572,0,0,0-.634-1.852,2.335,2.335,0,0,0-1.309-.405c-0.7-.015-1.41-0.006-2.115-0.006a0.373,0.373,0,0,0-.078.016v3.337Z" transform="translate(-375.813 -479.531)"/>
</svg>
