<svg xmlns="http://www.w3.org/2000/svg" width="30.844" height="34.19" viewBox="0 0 30.844 34.19">
  <defs>
    <style>
      .cls-1 {
        fill: #fff;
        fill-rule: evenodd;
      }
    </style>
  </defs>
  <path id="icon-play" class="cls-1" d="M952.9,2462h-1.6a3.618,3.618,0,0,1-2.123-2.73,10.13,10.13,0,0,1-.147-1.67q-0.014-12.7,0-25.41a9.487,9.487,0,0,1,.138-1.58,2.985,2.985,0,0,1,4.064-2.6,8.485,8.485,0,0,1,1.85.82q10.957,6.255,21.9,12.54c0.434,0.25.86,0.52,1.265,0.81,2.148,1.56,2.164,3.87.032,5.43a18.524,18.524,0,0,1-1.57.99c-5.016,2.88-10.023,5.78-15.059,8.62C958.759,2458.86,955.819,2460.41,952.9,2462Z" transform="translate(-949.031 -2427.81)"/>
</svg>
