<svg id="icon-telegram" xmlns="http://www.w3.org/2000/svg" width="36" height="36" viewBox="0 0 36 36">
  <defs>
    <style>
      .cls-1 {
        fill: #35aae7;
      }

      .cls-2 {
        fill: #fff;
        fill-rule: evenodd;
      }
    </style>
  </defs>
  <circle class="cls-1" cx="18" cy="18" r="18"/>
  <path class="cls-2" d="M224.759,7157.68l3.824,1.42,1.48,4.76a0.448,0.448,0,0,0,.716.21l2.131-1.73a0.638,0.638,0,0,1,.775-0.03l3.845,2.79a0.446,0.446,0,0,0,.706-0.27l2.816-13.54a0.449,0.449,0,0,0-.6-0.51l-15.694,6.05A0.456,0.456,0,0,0,224.759,7157.68Zm5.066,0.66,7.474-4.6a0.132,0.132,0,0,1,.157.21l-6.168,5.73a1.271,1.271,0,0,0-.4.76l-0.21,1.56a0.192,0.192,0,0,1-.377.02l-0.808-2.83A0.761,0.761,0,0,1,229.825,7158.34Z" transform="translate(-216 -7140)"/>
</svg>
