<svg id="icon-play-red-round" xmlns="http://www.w3.org/2000/svg" width="32" height="32" viewBox="0 0 32 32">
  <defs>
    <style>
      .cls-1 {
        fill: #e21d24;
      }

      .cls-2 {
        fill: #fff;
        fill-rule: evenodd;
      }
    </style>
  </defs>
  <circle class="cls-1" cx="16" cy="16" r="16"/>
  <path class="cls-2" d="M780.22,1070.17h-0.469a1.075,1.075,0,0,1-.625-0.8,3,3,0,0,1-.043-0.49q0-3.75,0-7.48a2.868,2.868,0,0,1,.04-0.47,0.872,0.872,0,0,1,1.2-.76,2.24,2.24,0,0,1,.545.24q3.225,1.845,6.444,3.69a3.1,3.1,0,0,1,.373.24,0.914,0.914,0,0,1,.009,1.6c-0.147.1-.3,0.2-0.462,0.29q-2.214,1.275-4.432,2.54C781.945,1069.25,781.079,1069.7,780.22,1070.17Z" transform="translate(-766 -1049)"/>
</svg>
