<svg xmlns="http://www.w3.org/2000/svg" width="17.94" height="21.656" viewBox="0 0 17.94 21.656">
  <defs>
    <style>
      .cls-1 {
        fill: #e21d24;
        fill-rule: evenodd;
      }
    </style>
  </defs>
  <path class="cls-1" d="M1174,768.26V755.829c0.01-.047.03-0.093,0.04-0.141a5.05,5.05,0,0,1,3.65-4.268c0.3-.085.61-0.134,0.92-0.2h8.72a0.679,0.679,0,0,0,.14.038,5.077,5.077,0,0,1,4.3,3.748c0.07,0.271.11,0.548,0.17,0.823V768.26a0.361,0.361,0,0,0-.04.139,5.061,5.061,0,0,1-4.96,4.465q-3.96.024-7.92,0a5.037,5.037,0,0,1-4.81-3.661C1174.12,768.9,1174.07,768.575,1174,768.26Zm1.69-6.229v5.708a3.379,3.379,0,0,0,3.45,3.438q3.825,0,7.66,0a3.374,3.374,0,0,0,3.44-3.454q0.015-5.678,0-11.353a3.375,3.375,0,0,0-3.46-3.458q-3.81,0-7.62,0a3.381,3.381,0,0,0-3.47,3.475v5.644Zm11.17-2.136a10.328,10.328,0,0,1-1.46-.182,2.906,2.906,0,0,1-2.13-2.8q-0.015-.708,0-1.416a0.845,0.845,0,0,1,.84-0.893,0.853,0.853,0,0,1,.85.888c0,0.458-.01.916,0,1.374a1.261,1.261,0,0,0,1.28,1.288c0.46,0,.92,0,1.38,0a0.846,0.846,0,1,1,0,1.69c-0.25,0-.51,0-0.76,0V759.9Zm-4.23,4.771c-0.97,0-1.94,0-2.91,0a0.841,0.841,0,0,1-.83-0.654,0.813,0.813,0,0,1,.4-0.916,0.985,0.985,0,0,1,.44-0.114q2.895-.012,5.79,0a0.845,0.845,0,1,1,.01,1.689C1184.56,764.669,1183.6,764.666,1182.63,764.666Zm0.02,1.564h2.81a0.849,0.849,0,1,1,0,1.69q-2.865,0-5.73,0a0.844,0.844,0,0,1-.18-1.672,1.361,1.361,0,0,1,.27-0.017h2.83Z" transform="translate(-1174 -751.219)"/>
</svg>
