<?xml version="1.0" encoding="utf-8"?>
<!-- Generator: Adobe Illustrator 25.4.1, SVG Export Plug-In . SVG Version: 6.00 Build 0)  -->
<svg version="1.1" id="Слой_1" xmlns="http://www.w3.org/2000/svg" xmlns:xlink="http://www.w3.org/1999/xlink" x="0px" y="0px"
	 viewBox="0 0 480.04 191.2" style="enable-background:new 0 0 480.04 191.2;" xml:space="preserve">
<style type="text/css">
	.st0{fill:none;stroke:#000000;stroke-width:0.3236;stroke-miterlimit:10;}
	.st1{fill:#FFFFFF;stroke:#000000;stroke-width:0.2457;stroke-miterlimit:10;}
	.st2{fill:none;stroke:#000000;stroke-width:0.2507;stroke-miterlimit:10;}
	.st3{stroke:#000000;stroke-width:5.5695;stroke-miterlimit:10;}
	.st4{fill:#E6E7E8;stroke:#000000;stroke-width:0.5;stroke-miterlimit:10;}
</style>
<g>
	<g>
		<g>
			<path d="M93.2,56.86H60.56c-13.79,0-26.63-7.02-34.07-18.63L6.99,7.81h14.78l6.28,9.81h35.32l0.02,0.03
				c-2.49,3.48-4.33,7.45-5.35,11.74H35.6l1.66,2.58c4.64,7.26,12.28,11.97,20.73,12.93c1.07,0.13,2.16,0.19,3.25,0.19h24.41
				L93.2,56.86z"/>
			<path d="M130.15,37.24c0,10.84-8.78,19.62-19.62,19.62H90.9c-10.84,0-19.62-8.78-19.62-19.62c0-10.84,8.78-19.62,19.62-19.62
				h19.62C121.36,17.62,130.15,26.4,130.15,37.24z M118.37,37.24c0-4.33-3.51-7.85-7.85-7.85H90.9c-4.33,0-7.85,3.51-7.85,7.85
				c0,4.33,3.51,7.85,7.85,7.85h19.62C114.86,45.09,118.37,41.57,118.37,37.24z"/>
			<path d="M192.46,50.97L192.46,50.97c0,3.25-2.64,5.89-5.89,5.89H135.7c-6.04,0-9.81-6.55-6.78-11.77l0,0l12.5-24.64
				c3.93-7.75,11.89-12.64,20.58-12.64h0l-18.92,37.28h43.49C189.83,45.09,192.46,47.72,192.46,50.97z"/>
			<path d="M473.06,109.34L473.06,109.34c0,3.25-2.64,5.89-5.89,5.89h-5.32c-10.19,0-19.32-6.31-22.93-15.84L425.09,63
				c-1.37-3.61,1.29-7.47,5.15-7.47h0c2.26,0,4.29,1.38,5.13,3.49l14.8,37.42c1.74,4.25,5.87,7.03,10.47,7.03h6.53
				C470.42,103.45,473.06,106.09,473.06,109.34z"/>
			<path d="M269.85,23.5v27.47c0,3.25-2.64,5.89-5.89,5.89l0,0c-3.25,0-5.89-2.64-5.89-5.89v-2c-3.58,4.78-9.27,7.88-15.7,7.88
				l-16.46,0c-10.23,0-19.09-7.65-19.98-17.84c-1.03-11.64,8.12-21.4,19.54-21.4h16.9c6.43,0,12.12,3.11,15.7,7.88v-2
				c0-3.25,2.64-5.89,5.89-5.89l0,0C267.21,17.62,269.85,20.25,269.85,23.5z M250.14,36.07c-0.56-3.89-4.08-6.68-8.01-6.68h-16.41
				c-3.93,0-7.45,2.79-8.01,6.68c-0.7,4.85,3.05,9.01,7.76,9.01h16.9C247.09,45.09,250.84,40.93,250.14,36.07z"/>
			<path d="M217.23,61.89c-1.14-2.26-3.61-3.54-6.11-3.16l-21.95,3.26c-3.97,0.59-6.2,4.9-4.38,8.48c1.14,2.26,3.61,3.53,6.11,3.16
				l21.95-3.26c3.01-0.45,5.02-3.04,5.02-5.82C217.87,63.66,217.67,62.75,217.23,61.89z"/>
			<path d="M212.73,115.23h-19.38c-8.99,0-17.41-4.4-22.54-11.78l0,0h12.09V87.76h-23.01l-8.19-11.78h61.03
				c-3.74,3.03-6.6,7.11-8.12,11.78h-9.94v15.69h9.94C206.13,108.12,208.99,112.2,212.73,115.23z"/>
			<path d="M269.86,75.98v52.98h-46.87l-7.26-11.77h42.35v-9.85c-3.58,4.78-9.27,7.88-15.7,7.88h-13.73
				c-10.84,0-19.62-8.78-19.62-19.62c0-10.84,8.79-19.62,19.62-19.62h13.73c6.43,0,12.12,3.11,15.7,7.88v-7.88H269.86z
				 M250.24,95.61c0-4.33-3.51-7.85-7.85-7.85h-13.73c-4.33,0-7.85,3.51-7.85,7.85c0,4.33,3.51,7.85,7.85,7.85h13.73
				C246.72,103.45,250.24,99.94,250.24,95.61z"/>
			<path d="M301.82,64.58l-9.7-17.68c-0.64-1.17-1.61-2.06-2.75-2.58c-1.15-0.54-2.45-0.72-3.75-0.46c-4.03,0.8-6.13,5.29-4.15,8.89
				l9.7,17.68c0.64,1.16,1.61,2.05,2.75,2.58c1.14,0.53,2.44,0.71,3.75,0.45C301.7,72.67,303.8,68.19,301.82,64.58z"/>
			<path d="M333.52,115.23h-58.38v-11.78h15.19V87.76h-15.19V75.98h40.05v10.73c0,0.35,0.01,0.7,0.02,1.05H302.1v15.69h17.95
				C323.29,108.57,327.97,112.68,333.52,115.23z"/>
			<path d="M329.8,87.76L329.8,87.76c0,8.67,7.03,15.7,15.7,15.7h46.53v11.77h-45.48c-15.75,0-28.52-12.77-28.52-28.52V66.17h11.77
				v9.81h35.32v11.77H329.8z"/>
			<path d="M202.5,37.24l6.54,19.62h-12.75l-5.24-15.7H169.8v3.36h-4.7c-3.9,0-7.07-3.17-7.07-7.07v-3.72
				c0-9.01,2.12-17.89,6.2-25.92l5.57,0v21.58h22.56l3.93-11.77h12.75L202.5,37.24z"/>
			<path d="M175.16,115.23L137.3,59.08h-17.86l11.83,16.9h-10.22c-0.33,0-0.66,0.02-0.99,0.04c-0.33,0.02-0.66,0.04-0.98,0.09
				c-0.14,0.01-0.29,0.03-0.43,0.05c-0.23,0.03-0.46,0.07-0.69,0.11c-0.1,0.01-0.19,0.03-0.29,0.05c-0.31,0.06-0.61,0.12-0.91,0.2
				l-0.15,0.03c-1.11,0.27-2.18,0.64-3.2,1.09c-0.35,0.16-0.69,0.32-1.02,0.49c-2.67,1.38-4.99,3.35-6.78,5.74v-0.05
				c-2.47,3.29-3.93,7.37-3.93,11.79s1.46,8.5,3.93,11.78v-0.05c1.79,2.39,4.11,4.36,6.78,5.74c0.33,0.17,0.67,0.33,1.02,0.49
				c1.02,0.45,2.09,0.82,3.2,1.09l0.15,0.03c0.3,0.08,0.6,0.14,0.91,0.2c0.1,0.02,0.19,0.04,0.29,0.05
				c0.23,0.04,0.46,0.08,0.69,0.11c0.14,0.02,0.29,0.04,0.43,0.05c0.32,0.05,0.65,0.07,0.98,0.09c0.33,0.02,0.66,0.04,0.99,0.04
				l13.99,0c0.48,0,0.95-0.02,1.42-0.06c0.26-0.01,0.51-0.03,0.77-0.06c0.19-0.02,0.38-0.05,0.57-0.08
				c0.31-0.04,0.63-0.09,0.93-0.15c0.25-0.05,0.5-0.1,0.74-0.16c0.11-0.02,0.21-0.04,0.32-0.08c1.09-0.27,2.14-0.63,3.15-1.07
				c0.34-0.16,0.68-0.32,1.02-0.49c0.33-0.17,0.66-0.35,0.98-0.54c2.26-1.34,4.23-3.11,5.8-5.2l0.02,0.01
				c0.43-0.58,0.82-1.19,1.19-1.82l6.79,9.7H175.16z M135.03,103.45H121.3c-4.34,0-7.85-3.51-7.85-7.84c0-4.34,3.51-7.85,7.85-7.85
				h13.73c4.33,0,7.85,3.51,7.85,7.85C142.88,99.94,139.36,103.45,135.03,103.45z"/>
			<path d="M441.81,115.23l-14.65-39.25h-13.93l2.69,6.92c-1.42-1.66-3.1-3.1-4.99-4.23c-0.32-0.19-0.65-0.37-0.98-0.54
				c-0.34-0.17-0.68-0.33-1.02-0.49c-1.01-0.44-2.06-0.8-3.15-1.07c-0.11-0.04-0.21-0.06-0.32-0.08c-0.24-0.06-0.49-0.11-0.74-0.16
				c-0.3-0.06-0.62-0.11-0.93-0.15c-0.19-0.03-0.38-0.06-0.57-0.08c-0.26-0.03-0.51-0.05-0.77-0.06c-0.47-0.04-0.94-0.06-1.42-0.06
				H387.3c-0.46,0-0.92,0.02-1.37,0.05c-0.29,0.02-0.58,0.04-0.86,0.08c-0.14,0.01-0.29,0.03-0.43,0.05
				c-0.23,0.03-0.46,0.07-0.69,0.11c-0.1,0.01-0.19,0.03-0.29,0.05c-0.31,0.06-0.61,0.12-0.91,0.2l-0.15,0.03
				c-1.11,0.27-2.18,0.64-3.2,1.09c-0.35,0.16-0.69,0.32-1.02,0.49c-2.67,1.38-4.99,3.35-6.78,5.74v-0.05
				c-2.47,3.29-3.93,7.37-3.93,11.79s1.46,8.5,3.93,11.78v-0.05c1.79,2.39,4.11,4.36,6.78,5.74c0.33,0.17,0.67,0.33,1.02,0.49
				c1.02,0.45,2.09,0.82,3.2,1.09l0.15,0.03c0.3,0.08,0.6,0.14,0.91,0.2c0.1,0.02,0.19,0.04,0.29,0.05
				c0.23,0.04,0.46,0.08,0.69,0.11c0.14,0.02,0.29,0.04,0.43,0.05c0.28,0.04,0.57,0.06,0.86,0.08c0.45,0.03,0.91,0.05,1.37,0.05
				h13.73c0.48,0,0.95-0.02,1.42-0.06c0.26-0.01,0.51-0.03,0.77-0.06c0.19-0.02,0.38-0.05,0.57-0.08c0.31-0.04,0.63-0.09,0.93-0.15
				c0.25-0.05,0.5-0.1,0.74-0.16c0.11-0.02,0.21-0.04,0.32-0.08c1.09-0.27,2.14-0.63,3.15-1.07c0.34-0.16,0.68-0.32,1.02-0.49
				c0.33-0.17,0.66-0.35,0.98-0.54c2.26-1.34,4.23-3.11,5.8-5.2l0.02,0.01c2.45-3.28,3.9-7.34,3.9-11.74c0-0.21-0.02-0.41-0.03-0.62
				l7.87,20.24H441.81z M401.03,103.45H387.3c-4.34,0-7.85-3.51-7.85-7.84c0-4.34,3.51-7.85,7.85-7.85h13.73
				c4.33,0,7.85,3.51,7.85,7.85C408.88,99.94,405.36,103.45,401.03,103.45z"/>
		</g>
	</g>
	<polygon points="275.44,128.96 275.14,183.39 291.03,162.82 316.99,164.12 	"/>
</g>
</svg>
